<svg xmlns="http://www.w3.org/2000/svg" data-name="Layer 1" viewBox="0 0 517 516"><g data-name="research and development"><path fill="#010101" d="M382,171.13a20.77,20.77,0,0,0-4.33-9.25c-.7-.83-1.33-1.71-2-2.54a45.06,45.06,0,0,0-7.09-6.92,115.86,115.86,0,0,0-12.31-8.13c-5.33-3.17-10.78-6.14-16.29-9-6.58-3.41-13.21-6.73-20.07-9.55a3.36,3.36,0,0,1-1.35-1.14,17.09,17.09,0,0,0-2-4.38q-1.58-2.48-3.16-5a48.27,48.27,0,0,1-3.93-7.06,55.9,55.9,0,0,1-3.76-11.93c-.57-3.12-1.06-6.25-1.38-9.41-.21-1.95-.39-3.9-.64-5.84-.34-2.67-.72-5.35-1.12-8A80.54,80.54,0,0,0,300.11,62a64,64,0,0,0-4.38-11.08,58,58,0,0,0-4.81-8.19A31,31,0,0,0,279.44,33,33.76,33.76,0,0,0,263,29.4a37.45,37.45,0,0,0-4.25.21,46.42,46.42,0,0,0-9,2.33,53.56,53.56,0,0,0-11.64,6,16.73,16.73,0,0,0-4.7,4.41c-1.74,2.6-1,1.93-4,2.48l-.2,0A23.76,23.76,0,0,0,210.38,62a23.32,23.32,0,0,0,1.86,17.48,22.79,22.79,0,0,0,7.06,8.2c.66.48.69.54.37,1.33-1.42,3.5-2.87,7-4.32,10.47-.25.6-.36.65-1.11.46a9.2,9.2,0,0,0-2.6-.3,3.6,3.6,0,0,0-3.12,1.58c-.24.38-.37.89-.86,1.07-2.53-1.1-4.5-.54-5.89,1.68a2.73,2.73,0,0,0-.27.54,1,1,0,0,1-1.07.69,3.29,3.29,0,0,0-3.06,2,6,6,0,0,0-.6,1.28,1.15,1.15,0,0,1-1.32.9c-2.52,0-3.22,1.46-3.49,3.16a9.85,9.85,0,0,0,.14,4.22,9.19,9.19,0,0,1,.33,2.6,33,33,0,0,0,.22,3.84,6.2,6.2,0,0,1,0,2.35c-1.14.13-2.25-.3-3.23.34h0a1.91,1.91,0,0,0-1.11.45,16.92,16.92,0,0,0-3.2,3.07,99,99,0,0,0-18.38,32.13c-.74,2.17-1.42,4.37-2,6.58a79.06,79.06,0,0,0-2.27,14.18,51.39,51.39,0,0,0,1.05,14.9,28.83,28.83,0,0,0,6,12.67,19.78,19.78,0,0,0,13,7,26.71,26.71,0,0,0,12.7-1.84,44.69,44.69,0,0,0,12.56-7.26c1.15-.93,2.28-1.89,3.42-2.84.36-.29.65-.21.72.2a8.59,8.59,0,0,1,.14,1c.15,2.63.32,5.26.45,7.9a98,98,0,0,1,0,13.16c-.12,1.48-.25,3-.33,4.44q-.62,10.32-1.19,20.64c-.3,5.46-.6,10.92-.86,16.39-.3,6.48-.65,13-1.32,19.4-.42,4-.78,7.93-1.28,11.88-.45,3.55-1,7.09-1.64,10.6-.87,4.57-1.64,9.17-2.9,13.66-.09.32-.17.65-.24,1-1.09,4.94-2.23,9.87-3.7,14.71-1.38,4.52-2.66,9.06-3.91,13.61a17.92,17.92,0,0,0-.68,4,6.12,6.12,0,0,0,1.68,4.83,11.88,11.88,0,0,0,4.58,2.86c.87.3,1.89.2,2.58,1-.31.88-.61,1.76-.93,2.64a6.21,6.21,0,0,1-.31.75,23.41,23.41,0,0,0-1.59,4.79c-.79,3.32-.3,6.32,2.64,8.51,1.43.45,1.44,1.55,1.28,2.74,0,.34,0,.68-.09,1-.59,4.62-1.24,9.23-1.7,13.87-.44,4.43-1.16,8.83-1.6,13.27s-1.17,9-1.62,13.47c-.49,4.84-1.19,9.65-1.77,14.47-.52,4.23-1,8.45-1.51,12.67-.3,2.48-.67,5-1,7.44a1.06,1.06,0,0,1-.86,1c-1.78.6-3.58,1.18-5.34,1.84a97.76,97.76,0,0,0-9.46,4.09c-2.73,1.35-5.32,2.93-7.9,4.52a37,37,0,0,0-6.6,4.65,13.76,13.76,0,0,0-4.12,5.9,6.66,6.66,0,0,0,2.8,7.94,19.13,19.13,0,0,0,8.37,2.8,44,44,0,0,0,15.27-1.14,62.89,62.89,0,0,0,17.49-7.23,25.19,25.19,0,0,0,7.12-6.21,15.22,15.22,0,0,0,3.09-9.43,32.93,32.93,0,0,0-.77-5.61,7.19,7.19,0,0,0-.68-1.9,2.67,2.67,0,0,0-2.62-1.86c-.21,0-.37-.1-.45-.46,1.1-3.63,2.24-7.37,3.37-11.11.69-2.26,1.39-4.51,2.07-6.77,1.34-4.46,2.65-8.92,4-13.37.84-2.77,1.74-5.53,2.58-8.3,1.84-6.13,3.65-12.28,5.48-18.41q1.62-5.43,3.27-10.85c.43-1.42.93-2.82,1.37-4.24.16-.54.6-.41,1-.52a8,8,0,0,1,2.57-.14,1,1,0,0,0-.57.27,7.87,7.87,0,0,0,3.27.29h0a36.54,36.54,0,0,0,4.43.46q3.73.22,7.47.53c3.49.29,7,.62,10.5.68,1.15,0,2.3,0,3.44.11,6,.43,12,.36,18,.41,3.23,0,6.47-.08,9.71-.35,3-.26,5.93-.2,8.89-.55.84-.1.89,0,1.08.81.71,3,1.4,6,1.87,9.11.55,3.66,1.17,7.32,1.54,11a19.31,19.31,0,0,0,.75,4.58,8.51,8.51,0,0,0,0,1c.35,2.81.73,5.62,1,8.44.3,3.57.67,7.13,1.09,10.68.31,2.62.39,5.26.54,7.88q.33,6,.57,11.94a29.15,29.15,0,0,1-.09,3.24c-.33,4.85-.8,9.69-1.29,14.53a48.64,48.64,0,0,0-.19,9.11,18.49,18.49,0,0,0,4.24,10.72,13.29,13.29,0,0,0,6.5,4.28,17.08,17.08,0,0,0,6.83.47,11.33,11.33,0,0,0,6.75-3.34,10.74,10.74,0,0,0,3.26-8.22,26.52,26.52,0,0,0-2.58-10.55c-1.52-3.3-3.26-6.51-4.87-9.77a74.51,74.51,0,0,1-5.13-14,52.31,52.31,0,0,1-1.21-8.81,8.08,8.08,0,0,0-.32-2.59,2,2,0,0,0-.3.44,4.22,4.22,0,0,1,.25-1.52c0-.47,0-.93,0-1.39q0-4.91,0-9.81c0-1,0-2,0-3,.05-.4.13-.8.16-1.2.53-9.31.74-18.63.54-27.95a79.26,79.26,0,0,0-.24-8.3c-.05-.39.16-.61.55-.7a18.13,18.13,0,0,0,3.68-1.1c2.39-1.13,4.27-3,3.74-6.23-.12-.73-.14-1.49-.33-2.2a58.84,58.84,0,0,0-1.86-6.2c-.63-1.71-1.52-3.3-2.18-5-.25-.62-.13-.86.48-1,2-.53,4.05-1.06,6.07-1.57a37.33,37.33,0,0,1,6.29-1.47,3.49,3.49,0,0,0,3.18-2.71,10.67,10.67,0,0,0,.51-4.19c-.14-1.41-.28-2.83-.54-4.22-.9-4.7-1.81-9.4-2.81-14.08-1.22-5.68-2.37-11.36-3.53-17.05-1-5.15-2.23-10.28-3.28-15.44-1.14-5.62-2.42-11.21-3.56-16.83-1.07-5.29-2.11-10.58-2.92-15.92-.47-3.13-1.17-6.23-1.76-9.35-.79-4.17-1.54-8.35-2.38-12.51a2.12,2.12,0,0,1,.47-2c2.41-2.82,4.77-5.7,7.16-8.54.29-.34.5-.79,1-.93.5.14.75.57,1.07.9q2.88,3,5.75,6a58,58,0,0,0,7.47,6.79,26.87,26.87,0,0,0,7.88,4,11.23,11.23,0,0,0,3,.41,2.38,2.38,0,0,0,1.92-.92,25.8,25.8,0,0,0,4.93-8.08c1.86-4.85,3.74-9.68,5.46-14.58,1.85-5.27,3.76-10.53,5.5-15.85.8-2.43,1.66-4.84,2.42-7.29s1.36-4.94,2.1-7.39c1.21-4.07,2.32-8.17,3.29-12.31a55.87,55.87,0,0,0,1.47-9A32.62,32.62,0,0,0,382,171.13ZM256.88,68.06c0-1.07,0-1.11,1-1.38a24.47,24.47,0,0,0,9.78-5.46c1.55-1.39,1.2-1.45,3.61-1a14.54,14.54,0,0,1,7.95,4.86,18.4,18.4,0,0,1,4.39,11.27c.11,1.34,0,2.7,0,4a.49.49,0,0,0,.48.53c.27,0,.56,0,.72-.23a23.62,23.62,0,0,1,1.22-2.08,3.07,3.07,0,0,1,4.76.11,6.84,6.84,0,0,1,1.33,3.75A10.82,10.82,0,0,1,290.08,89,15.08,15.08,0,0,1,287.2,92a3.74,3.74,0,0,1-2.32.39c-3,.12-4.51,1.39-5.06,4.37-.11.64,0,1.36-.6,1.83-2.78,4.33-6.79,7.24-11.24,9.59a14.7,14.7,0,0,1-14,.12,29.72,29.72,0,0,1-8.38-5.9,20.17,20.17,0,0,1-3.08-4,3.18,3.18,0,0,1-1.39-1.59c-.3-.57-.57-1.17-1.34-1.23-1.73-.79-3.67-.42-5.43-1a3.57,3.57,0,0,1-.57-1.5c-.08-.49.11-.75.62-.83a15.77,15.77,0,0,0,4.14-.77,18,18,0,0,0,7.22-2.91,23.66,23.66,0,0,0,9.62-11.84,13,13,0,0,0,1-4.29A12.33,12.33,0,0,0,256.88,68.06ZM286.83,101a.5.5,0,0,1-.43.56.45.45,0,0,1-.54-.42.52.52,0,0,1,.4-.57C286.57,100.56,286.8,100.68,286.83,101Zm-3-.43a4.25,4.25,0,0,1,.67.43c.05,0,0,.22,0,.33a.2.2,0,0,1-.13.14,1.6,1.6,0,0,1-.58,0,3.92,3.92,0,0,1-3-4.16,4.48,4.48,0,0,1,1.07-3.23.43.43,0,0,1,.37-.08c.19,0,.35.18.24.43-.18.43-.38.85-.53,1.29C281.18,97.85,281.8,99.42,283.84,100.55Zm-8.12,109.14c.09,1.55.18,3.1.17,4.65a82.3,82.3,0,0,0,.65,8.88c.37,3.42.67,6.85,1,10.28.29,3.23.55,6.46.82,9.69,0,.33.06.67.08,1,0,.64-.15.82-.83.81l-18-.45c-1.34,0-2.68-.1-3.91-.15-.47-.44-.25-.85-.24-1.23s.07-.68.08-1c.29-8.1.78-16.19.55-24.3-.12-4.25-.58-8.48-1-12.71-.24-2.42-.45-4.84-.7-7.25s-.57-5.1-.87-7.64c-.33-2.75-.68-5.49-1-8.24-.59-4.82-1-9.66-1.35-14.51s-.7-9.56-1-14.34c-.1-1.48-.15-3-.24-4.44a2.63,2.63,0,0,0-.26-1.38c-.09-2.69-.17-5.38-.26-8.06-.08-2.15-.17-4.3-.27-6.65a41.28,41.28,0,0,0,5,1.79,38.15,38.15,0,0,0,5.19.74,23,23,0,0,0,5.24-.26c1.66-.24,3.32-.54,5-.88a24.59,24.59,0,0,0,4.94-1.75c1.58-.71,3.07-1.63,4.71-2.52.16,1.12.31,2.17.47,3.22.41,2.73.76,5.47.93,8.22a11.67,11.67,0,0,0,.2,1.32s0,0,0,0l0,0q-.15,4.16-.31,8.29c-.16,3.58-.56,7.14-1.05,10.68-.88,6.35-1.89,12.67-2.84,19a52,52,0,0,0-.65,6.23c-.07,2.7-.28,5.4-.36,8.1C275.37,199.84,275.42,204.76,275.72,209.69Zm-36.35-66.87a.71.71,0,0,0-.6-.47c-2.65-.46-5.18-1.54-7.92-1.51-.69,0-.8-.17-.8-.87a47.26,47.26,0,0,1,2.06-14.56,38.06,38.06,0,0,1,1.91-5.53,3.07,3.07,0,0,1,1.14-1.35c1.11-.64,2.17-1.38,3.32-1.93,3.7-1.75,7.44-3.44,11.17-5.15.17-.08.4-.15.52.09a.62.62,0,0,1,0,.38,67.87,67.87,0,0,0-1.46,6.91,61.5,61.5,0,0,0-.73,9.68,155.62,155.62,0,0,0,.47,15.57c.08,1.41.16,2.83.27,4.24.09,1.05.23,2.09.35,3.14l0,0,0,0c-1,1.5-.59,3.16-.4,4.72.34,3,.39,5.93.63,8.88.47,5.72.86,11.44,1.53,17.14.72,6,1.42,12,2.11,18.31a115.1,115.1,0,0,1-19.3-31.52,20.44,20.44,0,0,1-.19-16.18c.65-1.56,1.46-3,2.21-4.55.33-.63,2.21-3.93,3.32-4.62A.77.77,0,0,0,239.37,142.82Zm-4-38.71c.13,0,.27,0,.39.09s.35.22.31.45a.38.38,0,0,1-.42.32,3.11,3.11,0,0,1-3-2,9.55,9.55,0,0,1-.31-1.3,6.4,6.4,0,0,1,3-5.63.56.56,0,0,1,.53.1.33.33,0,0,1,0,.51,8.65,8.65,0,0,0-2.11,2.4,4.66,4.66,0,0,0-.6,2.11A2.66,2.66,0,0,0,235.37,104.11Zm2.86,0a.57.57,0,0,1,.67-.53.55.55,0,0,1,.48.51.57.57,0,0,1-.67.52C238.42,104.53,238.2,104.36,238.23,104.07Zm39.66,25.1a29.39,29.39,0,0,1-9,3.92,31.6,31.6,0,0,1-13.44.58,18.42,18.42,0,0,1-5.33-1.84,1.56,1.56,0,0,1-1-1.58c0-3.24.08-6.49.42-9.71a52.11,52.11,0,0,1,1-5.36,33.11,33.11,0,0,1,1.44-5.47c.29-.76.45-.84,1.17-.56.88.34,1.74.74,2.63,1a15.61,15.61,0,0,0,10.88-.21,28.87,28.87,0,0,0,5.77-3.2,12.29,12.29,0,0,1,1.72,3.41,86.37,86.37,0,0,1,3.15,10.23c.53,2.23.92,4.49,1.41,6.73A1.66,1.66,0,0,1,277.89,129.17ZM213.6,79.85A22.7,22.7,0,0,1,210.84,65,22.69,22.69,0,0,1,229.41,46a22.43,22.43,0,0,1,10.21.54,22.16,22.16,0,0,1,12.76,9.69,23.33,23.33,0,0,1,3.54,12.06c0,.54,0,1.08.05,1.61h0c-.09.39-.23.78-.28,1.17A23,23,0,0,1,238.3,90.64c-.71.19-1.49,0-2.15.44a41.23,41.23,0,0,1-6.66-.21,22.19,22.19,0,0,1-9.6-4A21.71,21.71,0,0,1,213.6,79.85Zm6.13,27.6a4.3,4.3,0,0,1,3,.86,6.5,6.5,0,0,1,2,3.24,18.78,18.78,0,0,1,.4,6.64,11.12,11.12,0,0,1-1.88,4.87,12.73,12.73,0,0,1-1,1.49,73.46,73.46,0,0,0-5.77,8.06,17.2,17.2,0,0,1-4.14,4.41,28.16,28.16,0,0,0-5.5,5.62,21.24,21.24,0,0,0-2.21,3.85c-1.13,2.37-2.13,4.8-3.23,7.19a70.38,70.38,0,0,1-7,11.36,22.09,22.09,0,0,1-1.89,2.11c-.36.37-.74.3-.91-.21-.44-1.27-.85-2.55-1.21-3.85-.22-.78-.32-1.59-.46-2.38a19.33,19.33,0,0,0-.87-3.74,3.09,3.09,0,0,1-.23-.77c-.22-2.42-1-4.76-1.2-7.17a11.59,11.59,0,0,1,1.47-7.2,52.22,52.22,0,0,1,3.09-5,13.15,13.15,0,0,0,2.31-9.57c-.08-.81-.11-1.62-.17-2.43s-.65-1.56.41-2.07c.6.81,1.16,1.66,1.82,2.42a12,12,0,0,0,1.76,1.66c1.17.87,1.7.84,2.91,0,.26-.19.48-.42.77-.67.46.34.88.68,1.33,1a3,3,0,0,0,4.37-.87,6.85,6.85,0,0,0,.55-1.08,1.31,1.31,0,0,1,1.26-1c1.79-.14,2.68-1.41,3-3.06.11-.52.23-.84.84-.88a1.67,1.67,0,0,0,1.28-.9,2,2,0,0,1,1.82-1,2.2,2.2,0,0,0,1.42-.72,3,3,0,0,0,.44-4.18,5.19,5.19,0,0,0-2.13-1.81,6.78,6.78,0,0,1-2.69-2.4c-1-1.53-.81-2.56.3-3.83a.72.72,0,0,1,1.07-.15,9.38,9.38,0,0,1,.8.61A6.07,6.07,0,0,0,219.73,107.45Zm-4.11,9.19c.07-1,.15-2,.25-3,0-.09.17-.16.26-.23s.15,0,.2,0a2.15,2.15,0,0,1,1.25,1.88,1.85,1.85,0,0,1-1.4,1.72C216,117.1,215.6,116.86,215.62,116.64ZM209.7,102.1a2.12,2.12,0,0,1,1.68-.93,5,5,0,0,1,4.91,2.13,1.59,1.59,0,0,1,.34.39l.05.07a.46.46,0,0,1,.28.34.4.4,0,0,1,.2.29.56.56,0,0,1-.07.68l-.79-.7a.5.5,0,0,1-.34-.29l-.09,0a2.66,2.66,0,0,0-.45-.29,11.09,11.09,0,0,0-1.4-.09,1.43,1.43,0,0,0-.75.25,4.42,4.42,0,0,0-1.6,4.81,7,7,0,0,0,2.09,2.91,2,2,0,0,1,.7,1.78c-.1,1.07-.16,2.14-.27,3.21a4.06,4.06,0,0,1-.56,1.71.58.58,0,0,1-1,.1,6.67,6.67,0,0,1-1.55-2.57,64.24,64.24,0,0,1-2.43-9.15A6,6,0,0,1,209.7,102.1Zm-7.11,4a3.17,3.17,0,0,1,2.6-2.95c1.26-.23,2,.46,1.95,1.79,0,.13,0,.27-.08.66.13.81.23,1.89.49,2.93.53,2.15,1.13,4.28,1.71,6.42a12.83,12.83,0,0,0,1.3,3.16,4.56,4.56,0,0,1,.52,2.73,2.24,2.24,0,0,1-.81,1.57,1.1,1.1,0,0,1-1.62,0,6.35,6.35,0,0,1-1.17-1.38,34.92,34.92,0,0,1-4.78-12.33A12,12,0,0,1,202.59,106.07Zm-3.76,1.41a2,2,0,0,1,1.48-1c.37,0,.68.08.76.47a6.05,6.05,0,0,1,.14,1.2,13,13,0,0,0,.62,3.57,39.85,39.85,0,0,0,4.86,10.61,2,2,0,0,1,.36,1.86,2.91,2.91,0,0,1-1.55,2,1,1,0,0,1-1,0,5.66,5.66,0,0,1-2.19-2,37.37,37.37,0,0,1-4.55-12.87,6.19,6.19,0,0,1,0-.67A5.73,5.73,0,0,1,198.83,107.48Zm-5.35,4.46a1.91,1.91,0,0,1,2.09-1.24.77.77,0,0,1,.81.73,35.31,35.31,0,0,0,4,12c.09.18.19.36.27.54a1.19,1.19,0,0,1-.26,1.63.76.76,0,0,1-1.08.19A8.72,8.72,0,0,1,198,124.6a22.17,22.17,0,0,1-4.51-8.28,8.1,8.1,0,0,1-.3-2.32A4.85,4.85,0,0,1,193.48,111.94Zm4.15,250.24a5.38,5.38,0,0,1-1.89-5.06,30.67,30.67,0,0,1,.91-4.56c1.24-4.42,2.56-8.81,3.83-13.22,1-3.37,1.81-6.78,2.58-10.2.88-3.95,2-7.85,2.74-11.82s1.67-7.92,2.07-12c.3-2.95.87-5.87,1.27-8.82.23-1.67.38-3.35.52-5,.58-6.59,1.3-13.17,1.54-19.79q.39-11.24,1.29-22.45c.23-2.9.33-5.8.41-8.71.13-4.66.58-9.3.84-13.95a82.48,82.48,0,0,0-.17-13c0-.4-.07-.81-.08-1.21a58.38,58.38,0,0,0-.41-6.47c-.11-.86-.08-1.74-.11-2.62,0-.27,0-.55-.32-.65a.75.75,0,0,0-.76.15c-.39.36-.71.8-1.1,1.16a51.7,51.7,0,0,1-14.09,9.39,28.11,28.11,0,0,1-12,2.58,18.59,18.59,0,0,1-15.34-8.06,28.94,28.94,0,0,1-4.74-10.86,55.85,55.85,0,0,1-.38-20.74,87.1,87.1,0,0,1,7.35-23.89A90.5,90.5,0,0,1,185,131.51c1.14-1.33,2.43-2.52,3.62-3.81a3.36,3.36,0,0,1,3-.91c.31.14.61.29.92.4a1,1,0,0,1,.67.91c.19,2.68,0,5.28-1.52,7.6-.86,1.29-1.68,2.61-2.56,3.89a15.85,15.85,0,0,0-2.62,7.78,12.09,12.09,0,0,0,.48,4,18.88,18.88,0,0,1,.67,3.57,8.19,8.19,0,0,0,.38,2.2,69.9,69.9,0,0,1,1.62,7.3,15.91,15.91,0,0,0,2.27,5.16,8.58,8.58,0,0,1,1.48,5.16,6.16,6.16,0,0,0,1.79,4.37c.07-.25.39-.36.46-.83a6.68,6.68,0,0,1-1.16-4.39,7,7,0,0,0-1.2-4c-.44-.78-.43-1,.27-1.55,3.47-2.71,5.49-6.45,7.37-10.27,1.67-3.39,3.23-6.83,4.84-10.25a9.62,9.62,0,0,1,.73-1.18c0-.06.29,0,.35,0a.65.65,0,0,1,.1.38c.45,4.57.84,9.14,1.34,13.7a56.86,56.86,0,0,1,.36,10.1c-.1,1.48-.26,3-.44,4.43a75,75,0,0,1-2.07,10.93,27.63,27.63,0,0,1-7.18,12.71c-1,.94-1.85,2-2.75,3a.34.34,0,0,0,.14.51c.1.06.28.12.36.07a4.06,4.06,0,0,0,.84-.55c.49-.46,1-1,1.41-1.45,1.25-1.41,2.56-2.79,3.71-4.27a26.59,26.59,0,0,0,3.59-7,56,56,0,0,0,2.36-9.61,67.2,67.2,0,0,0,1.1-8.83,41.11,41.11,0,0,0-.07-6.47c-.25-2.49-.35-5-.6-7.47-.31-3-.7-6-1.05-9.05,0-.13-.06-.26-.07-.39-.18-3.52-.57-2.71,1.61-5.53a18.3,18.3,0,0,1,4.6-4.22,45.09,45.09,0,0,0,4.91-3.89,6.64,6.64,0,0,0,1.49-1.65,20.48,20.48,0,0,1,5.38-5.71c1.83-1.5,3.54-3.12,5.23-4.77.33-.32.62-.72,1.15-.77.3.43,0,.78-.16,1.13q-1.19,3.56-2.05,7.19a42.35,42.35,0,0,0-.89,7.43c-.08,1.35-.15,2.7-.19,4,0,1,.26,1.38,1.28,1.38a28.27,28.27,0,0,1,6.79,1.06c.54.13.64.48.21.83a4.9,4.9,0,0,0-1.53,1.85c-1.12.85-1.57,2.17-2.21,3.33a23.35,23.35,0,0,0-1.73,19.52,89,89,0,0,0,5,11,165.09,165.09,0,0,0,9.23,15c1.2,1.78,2.68,3.37,4,5,.43.52.9,1,1.35,1.51,2.68,2.93,2.7,3,2.94,7,.21,3.57.52,7.13.69,10.7a96.37,96.37,0,0,1-.06,9.91c-.25,4.84-.43,9.7-.61,14.55-.06,1.41,0,2.83,0,4.24a5.13,5.13,0,0,0-.21,2.2c-.07,7.09.08,14.19-.18,21.28-.17,4.52-.32,9-.42,13.57s0,9.18.31,13.77.32,8.91.52,13.37c.22,4.65.45,9.3,1.06,13.93.27,2.07.37,4.17.49,6.26.31,5.73.75,11.46.66,17.21,0,1,0,2,.09,3a57.46,57.46,0,0,1-.39,8.09,17.15,17.15,0,0,0,.27,5.63,8.1,8.1,0,0,1,.18.79,3.06,3.06,0,0,1-2.4,3.47,16.47,16.47,0,0,1-5.24.24c-.27,0-.54-.12-.8-.12-4.94-.09-9.76-1.29-14.7-1.5-3.56-.16-7.11-.82-10.66-1.25-2.81-.34-5.62-.73-8.45-1-3.7-.36-7.36-.94-11-1.64A12.31,12.31,0,0,1,197.63,362.18Zm15.1,101.25a9.12,9.12,0,0,1,.68,2.11,37.79,37.79,0,0,1,.71,4.19,13.55,13.55,0,0,1-1.84,8,20.22,20.22,0,0,1-6.93,6.95,61,61,0,0,1-8.2,4.4c-1.71.76-3.52,1.36-5.3,2-1.34.45-2.72.79-4.08,1.18a47.3,47.3,0,0,1-10.84,1.57,26.21,26.21,0,0,1-11.54-2.35,7.28,7.28,0,0,1-2-1.34,5.35,5.35,0,0,1-1.56-5.36,10,10,0,0,1,1.9-3.76,25,25,0,0,1,6.77-5.7,109.6,109.6,0,0,1,11.26-6.38,107,107,0,0,1,12.78-5c.66-.2.89-.09,1.07.52.13.45.23.91.35,1.37a9.89,9.89,0,0,0,.28,1,3.21,3.21,0,0,0,4.5,2.13,20.43,20.43,0,0,0,5.37-3.2,46.3,46.3,0,0,1,4-3.05C211.23,461.9,212.13,462.17,212.73,463.43Zm18.82-75.65c-.82,2.78-1.63,5.56-2.48,8.34-1.45,4.77-2.93,9.53-4.38,14.3q-2.48,8.13-4.92,16.25t-5,16.44q-2.68,8.91-5.33,17.83a1.81,1.81,0,0,1-.56,1c-2.26,1.69-4.31,3.68-6.85,5a9.66,9.66,0,0,1-1.83.82c-1.51.42-2.3.09-2.94-1.35a9.19,9.19,0,0,1-.9-4.91q.49-3.92,1-7.84l1.08-8.84.93-7.63c.38-3.08.74-6.17,1.12-9.25.76-6.22,1.61-12.44,2.28-18.68.41-3.9.94-7.77,1.4-11.66.5-4.22,1-8.44,1.54-12.66,0-.19.09-.38.16-.7a20.52,20.52,0,0,1,3.55.39c3.57.26,7.13.5,10.69.83,1.88.17,3.74.54,5.61.78s3.49.38,5.24.58C231.61,386.93,231.74,387.14,231.55,387.78ZM323.14,455c.69.45.71,1.19.9,1.8a66.12,66.12,0,0,0,2.48,6.4c1.37,3.31,3.19,6.39,4.79,9.58a30.85,30.85,0,0,1,3.23,9.54,13.32,13.32,0,0,1-.22,6.21,9.56,9.56,0,0,1-3.57,5,12.29,12.29,0,0,1-10.4,1.86c-4.75-1.09-7.75-4.12-9.6-8.46-1.69-4-1.81-8.14-1.43-12.34s.89-8.59,1.32-12.88c.11-1.07.13-2.15.21-3.41A11.36,11.36,0,0,0,323.14,455Zm-1.57-4.59c.62,3.35.15,4.37-2.95,5.88a11,11,0,0,1-3.89,1c-2.36.2-3.33-.71-3.38-3.1-.08-4,0-8.06-.35-12.11-.8-9.73-1.67-19.45-2.94-29.14a2.13,2.13,0,0,0-.39-1.33,1.77,1.77,0,0,1,0-.2,19.09,19.09,0,0,0-.21-3,171.78,171.78,0,0,0-2.88-17.17c-.46-1.93-.26-2.07,1.63-2.32,3.81-.5,7.63-1,11.43-1.56,2.88-.44,3-.3,3,2.6,0,8.57,0,17.15,0,25.72h0a2.19,2.19,0,0,0-.4,1.53,79.91,79.91,0,0,0,.11,8.89,6.93,6.93,0,0,1,.31,1.8c0,.77,0,1.54,0,2.31s0,1.58,0,2.37a12.37,12.37,0,0,1-.32,2.56,42.64,42.64,0,0,0-.12,6.59c0,.64,0,1.37.7,1.74,0,.11-.06.23-.11.34C320.47,446.06,321.17,448.22,321.57,450.39ZM327.45,374c2.2,7.06.69,9.32-6.56,10.51a218.58,218.58,0,0,1-25.73,3.05c-5.59.24-11.18.79-16.79.49-9.77-.51-19.56-.48-29.32-1.15-2.66.32-5.28-.48-7.93-.35a7.82,7.82,0,0,0-1.28,0c-1.52-.11-3-.21-4.56-.34a93.91,93.91,0,0,1-9.45-1.08c-1.85-.34-3.74-.52-5.62-.7-2.56-.24-5.12-.4-7.67-.64-2.08-.2-4.17-.39-6.24-.74a6.37,6.37,0,0,1-5-5.67,7.26,7.26,0,0,1,.17-2.41,63.69,63.69,0,0,1,2.9-8.19c.23-.53.54-.63,1.1-.55,6,.75,11.93,1.46,17.89,2.21,2.14.27,4.28.56,6.42.91a56.86,56.86,0,0,0,6.25.54,65.22,65.22,0,0,1,6.83.8,47.29,47.29,0,0,0,10.5.61,4.88,4.88,0,0,0,1.76-.42c1.66-.78,2.76-1.92,2.59-3.91a10.91,10.91,0,0,0-.14-1.82,15.25,15.25,0,0,1-.15-5.43c.12-1.34.23-2.69.23-4q0-6.18,0-12.37c0-3.37-.36-6.74-.64-10.1-.21-2.56-.28-5.13-.57-7.68-.57-5-.69-10-1.09-14.95-.28-3.5-.3-7-.43-10.53-.25-6.27-.67-12.55-.36-18.84.14-3,.22-6.07.32-9.11,0-.47,0-.94-.06-1.41l-.05-.05c1.15-1.27,1-2.9,1-4.43.06-5.87,0-11.75,0-17.63,0-2.16.23-2.33,2.27-2.42,6.09-.27,12.14.53,18.22.42,1.27,0,1.79.67,2,1.82.25,1.41.21,2.83.43,4.24,2.4,15.31,2.76,30.78,3.37,46.21.27,6.76,1,13.46,1.48,20.19.44,6.26,1.3,12.49,1.88,18.74a160.46,160.46,0,0,0,3.54,22c1,4.34,3.7,6.74,8,7.6a28.74,28.74,0,0,0,9.48.21c4.95-.65,9.94-1,14.84-2.11a2.9,2.9,0,0,1,3.71,1.86A59,59,0,0,1,327.45,374Zm-1.06-134.3c-2.1,2.47-4.15,5-6.26,7.44a27.53,27.53,0,0,1-8.31,6.7,24.57,24.57,0,0,1-9.28,2.65,20.58,20.58,0,0,1-2.22,0c-.18,0-.43,0-.48-.24s.09-.35.3-.45l6-2.89c2.55-1.23,5.1-2.48,7.64-3.72a.83.83,0,0,0,.29-.27.48.48,0,0,0,.08-.35c-.06-.2-.22-.41-.43-.35a9,9,0,0,0-1.51.53c-3.05,1.44-6.08,2.92-9.12,4.37-1.71.81-3.42,1.61-5.14,2.38a8.75,8.75,0,0,1-5.15.66,1.47,1.47,0,0,1-.34-.15c-.09-.14-.09-.27,0-.36a139.25,139.25,0,0,1,16.17-8.75c.74-.34,1.5-.62,2.23-1a.49.49,0,0,0,.24-.68.48.48,0,0,0-.64-.31c-.7.26-1.4.51-2.07.82a130.64,130.64,0,0,0-14.65,7.77,15.69,15.69,0,0,1-3.26,1.61,3.87,3.87,0,0,1-2,.18,1.22,1.22,0,0,1-.77-2.11,5.45,5.45,0,0,1,1.78-1.31c1.58-.77,3.16-1.53,4.76-2.26s3-1.29,4.45-1.93a34.76,34.76,0,0,0,7.18-4.11c.81-.61,1.68-1.14,2.5-1.74a12.75,12.75,0,0,0,1.39-1.16.62.62,0,0,0,.07-.56.48.48,0,0,0-.71-.13c-1.28.87-2.58,1.73-3.83,2.65a38.08,38.08,0,0,1-7,4c-2.58,1.16-5.18,2.29-7.77,3.43-.85.38-1.44.31-1.81-.21a1.82,1.82,0,0,1,0-2.08,4.91,4.91,0,0,1,1.9-1.48c1.34-.64,2.65-1.36,4-1.88,5.85-2.2,10.13-6.32,13.83-11.17.86-1.12,1.64-2.31,2.45-3.47a.48.48,0,0,0-.2-.69.44.44,0,0,0-.54.1,1.27,1.27,0,0,0-.27.3c-1,1.93-2.7,2.92-4.56,3.78-2.14,1-4.14,2.28-6.47,2.83a11.46,11.46,0,0,1-3.58.57,4.55,4.55,0,0,1-1-.17,1,1,0,0,1-.54-1.33,2.41,2.41,0,0,1,.91-1.06c.57-.36,1.15-.72,1.74-1,1.14-.59,2.29-1.16,3.43-1.73a44.63,44.63,0,0,0,8.56-5.74c.78-.65,1.59-1.26,2.41-1.86a8.33,8.33,0,0,1,5.14-1.56c1.82,0,3.65,0,5.47.07A8.74,8.74,0,0,0,327,221a.89.89,0,0,1,1.27.11s.1.09.15.14c2.65,2.59,5.29,5.19,8.07,7.9a29.6,29.6,0,0,0-4,3.47C330.43,235,328.4,237.34,326.39,239.71Zm-8.71-19.8c.75-6.64,1.22-13.3,1.59-20,.2-3.64.53-7.27.89-10.9.18-1.81.55-3.6.86-5.39,0-.18.18-.33.27-.47.43,0,.64.27.88.48a25.78,25.78,0,0,0,6,3.71c.92.42,1.76,1,2.69,1.38a15.32,15.32,0,0,0,6.52,1.22,6.88,6.88,0,0,1,1.2,0,.51.51,0,0,1,.4.74,2.48,2.48,0,0,1-.17.37c-1.82,3.76-3.66,7.51-5.46,11.28s-3.84,7.12-5.3,10.9c-.69,1.75-1.44,3.48-2.16,5.22-.13.31-.37.64-.34.94.13,1.36-.83,1.47-1.77,1.65a12.8,12.8,0,0,1-3,0,14.36,14.36,0,0,1-2.95-.18A1.61,1.61,0,0,1,317.68,219.91Zm61.92-29.75c-1.06,4.18-2.25,8.33-3.44,12.48-1.09,3.83-2.37,7.59-3.54,11.39-2,6.45-4.34,12.78-6.59,19.14-1.67,4.71-3.47,9.36-5.36,14a23.42,23.42,0,0,1-3.67,6c-.17.21-.37.39-.55.6a2,2,0,0,1-2,.67,23.14,23.14,0,0,1-5.19-1.68,34.81,34.81,0,0,1-7-4.81,56.25,56.25,0,0,1-4.45-4.42c-2.09-2.21-4.2-4.4-6.29-6.61-.58-.61-.58-.7,0-1.35a24.33,24.33,0,0,1,4.83-4.89c.94-.63,1-.67,1.88.12.66.58,1.29,1.2,1.91,1.81,1.67,1.67,3.34,3.33,4.93,5.09s3.36,3.51,5.05,5.25a6.64,6.64,0,0,1,1.41,1.71.67.67,0,0,1-.61,1,1.8,1.8,0,0,1-1.14-.36,8.82,8.82,0,0,0-.82-.53c-.07,0-.23.08-.34.15s-.05.12,0,.17a2.42,2.42,0,0,0,2.68,1.64,1.68,1.68,0,0,0,1.3-2.15,3.92,3.92,0,0,0-1.17-1.86c-.8-.82-1.62-1.63-2.41-2.47-4.28-4.5-8.59-9-13.17-13.17-1.29-1.18-2.53-2.43-3.77-3.68a47.11,47.11,0,0,0-4.46-4.13c-.62-.49-.62-.61-.29-1.38,1.72-4,3.45-8.06,5.48-12,2.42-4.67,4.64-9.44,6.94-14.17l.1-.18c.69-1.67.09-2.61-1.72-2.68q-.4,0-.81,0a12.25,12.25,0,0,1-6.83-1.5c-1.53-.84-3.14-1.56-4.67-2.41a21.79,21.79,0,0,1-6.27-5.68c-.42-.52-.87-1-1.33-1.52a.36.36,0,0,0-.53,0,.51.51,0,0,0-.13.55c.17.62.71,1,1.05,1.47.57.83,1.63,1.43,1.76,2.41a7.82,7.82,0,0,1-.49,2.76,40.76,40.76,0,0,0-.88,6q-.46,5.36-.85,10.71c-.32,4.58-.57,9.17-.92,13.75-.13,1.67-.47,3.34-.72,5a.72.72,0,0,1-.8.72c-2.83-.08-5.09,1.25-7.11,3a51.1,51.1,0,0,1-11.71,7.56c-.79.38-1.55.82-2.31,1.25a4.35,4.35,0,0,0-1.36,1.2,2.19,2.19,0,0,0,1.51,3.64,7.44,7.44,0,0,0,2.82-.11,22,22,0,0,0,5.73-2,7.55,7.55,0,0,1,.93-.38c.28-.07.44,0,.53.1a7.25,7.25,0,0,0,.7-.54c.08-.08.17-.16.25-.25a.24.24,0,0,1,.31-.07.55.55,0,0,0-.39.21c-.27.25-.56.47-.85.69a.7.7,0,0,1,.05.45,23.62,23.62,0,0,1-8.75,6.71c-1.8.78-3.57,1.61-5.34,2.45a10.37,10.37,0,0,0-1.89,1.15,3.22,3.22,0,0,0-1.09,4.3,8.07,8.07,0,0,0,.39.78c-.43.44-.89.84-1.26,1.3-1.27,1.58-.56,3,.87,3.64a1.74,1.74,0,0,0,.57.19,16,16,0,0,1,2.41.08c.77.17,1.41.76,2.25.84a11.57,11.57,0,0,0,3.43-.14,3.66,3.66,0,0,1,1.77.08,14.25,14.25,0,0,0,6.62.18,27.3,27.3,0,0,0,14.61-7.78,8,8,0,0,1,.76-.66s.13,0,.23,0a3.17,3.17,0,0,1,.46,1.47c1.08,5.63,2.21,11.25,3.2,16.9,1.05,6,2.06,12,3.29,17.91,1,4.89,2,9.78,3,14.67.9,4.36,1.83,8.71,2.75,13.07l3.72,17.83c1.24,5.94,2.53,11.87,3.72,17.83a36.77,36.77,0,0,1,.7,6,11.44,11.44,0,0,1-.46,3.4,2.22,2.22,0,0,1-2.15,1.82,16.7,16.7,0,0,0-3.94.85c-2.72.8-5.44,1.58-8.2,2.24-1.7.4-3.47.5-5.19.86-4,.81-8,1.16-12,1.69-1.48.2-2.94.45-4.42.62a20.32,20.32,0,0,1-9.94-1.18,6.31,6.31,0,0,1-3.94-4.56c-.28-1-.51-2.09-.8-3.13-.81-2.87-1.11-5.83-1.65-8.75-.87-4.78-1.09-9.65-1.7-14.47-.86-6.69-1.31-13.43-2-20.14-.67-6.32-.94-12.66-1.2-19-.31-7.56-.56-15.12-.92-22.67-.12-2.56-.5-5.11-.79-7.66-.31-2.82-.65-5.63-1-8.45-.36-3.08-.74-6.16-1.09-9.25-.2-1.74-.44-3.48-.51-5.23-.18-4.13-.8-8.2-1.12-12.31-.14-1.68-.36-3.36-.49-5-.44-5.72-.86-11.44-1.06-17.18a9.11,9.11,0,0,1,1.46-5.34c1.2-2,2.38-3.92,3.59-5.87a84.59,84.59,0,0,0,4.26-8c1.52-3.16,2.94-6.37,4.34-9.59a88.49,88.49,0,0,0,3.85-10.85c.8-2.79,1.72-5.54,2.27-8.4a35,35,0,0,0,.64-11.27,12.3,12.3,0,0,0-1.71-4.73,6.5,6.5,0,0,0-2.94-2.69c-.37-.16-.73-.35-1.09-.54s-.45-.48-.13-.78c.64-.61,1.3-1.19,1.95-1.78a3.46,3.46,0,0,0,1.08-1.17,1.66,1.66,0,0,0,.06-.16.6.6,0,0,0-.54-.45l-.75.52c-1.11,1-2.24,1.92-3.34,2.91-.55.5-.43,1.09.27,1.44a6.77,6.77,0,0,0,.75.28c3.21,1.16,4.78,3.63,5.23,6.84a33.64,33.64,0,0,1-1.1,13.82c-1.15,4.15-2.31,8.31-3.84,12.34-.64,1.7-1.28,3.4-2,5.07-2,4.65-4.12,9.23-6.49,13.69-1.61,3-3.42,6-5.29,8.85a1.9,1.9,0,0,1-.38.37c-.37-.16-.32-.44-.32-.7,0-4.66.18-9.31.49-14,.34-5.05,1.26-10,2-15,.93-6,1.86-12,2.28-18.07a114,114,0,0,0,.3-12.94,4.42,4.42,0,0,0-.32-2.18,58.45,58.45,0,0,0-1-9.24c-.74-4-1.48-8.1-2.55-12.08-.41-1.5-.94-3-1.39-4.44a2.93,2.93,0,0,1-.3-1.63,12.61,12.61,0,0,1,4.57.38,4.68,4.68,0,0,1,1.84,1.22c.5.44.88,1,1.57,1.24l.18.12a.78.78,0,0,0,.39-.37,2.09,2.09,0,0,1-.08-.23l-.71-1c.43-.37.9-.19,1.31-.1a49.09,49.09,0,0,1,9.06,2.75c2.23,1,4.41,2,6.64,3,5.23,2.16,10.31,4.64,15.44,7a4.58,4.58,0,0,0,1.91.62,17.49,17.49,0,0,0,3.07,1.51c2.94,1.35,5.92,2.62,8.83,4,4.06,2,8.12,4,12.1,6.12q6.78,3.63,13.42,7.53c3,1.77,6,3.67,8.9,5.61a49.21,49.21,0,0,1,13.37,13.11,20.76,20.76,0,0,1,3.56,10.62A49.19,49.19,0,0,1,379.6,190.16Z"/><path fill="#f38704" d="M256.72 366.63a8.1 8.1 0 00-.18-.79 17.15 17.15 0 01-.27-5.63 57.46 57.46 0 00.39-8.09c-.05-1-.11-2-.09-3 .09-5.75-.35-11.48-.66-17.21-.12-2.09-.22-4.19-.49-6.26-.61-4.63-.84-9.28-1.06-13.93-.2-4.46-.25-8.92-.52-13.37s-.42-9.18-.31-13.77.25-9.05.42-13.57c.26-7.1.11-14.19.18-21.28a5.13 5.13 0 01.21-2.2c0-1.41 0-2.83 0-4.24.18-4.85.36-9.71.61-14.55a96.37 96.37 0 00.06-9.91c-.17-3.57-.48-7.13-.69-10.7-.24-3.94-.26-4-2.94-7-.45-.5-.92-1-1.35-1.51-1.36-1.67-2.84-3.26-4-5a165.09 165.09 0 01-9.23-15 89 89 0 01-5-11 23.35 23.35 0 011.73-19.52c.64-1.16 1.09-2.48 2.21-3.33a4.9 4.9 0 011.53-1.85c.43-.35.33-.7-.21-.83a28.27 28.27 0 00-6.79-1.06c-1 0-1.32-.38-1.28-1.38 0-1.35.11-2.7.19-4a42.35 42.35 0 01.89-7.43q.87-3.63 2.05-7.19c.12-.35.46-.7.16-1.13-.53 0-.82.45-1.15.77-1.69 1.65-3.4 3.27-5.23 4.77a20.48 20.48 0 00-5.38 5.71 6.64 6.64 0 01-1.49 1.65 45.09 45.09 0 01-4.91 3.89 18.3 18.3 0 00-4.6 4.22c-2.18 2.82-1.79 2-1.61 5.53 0 .13.06.26.07.39.35 3 .74 6 1.05 9.05.25 2.49.35 5 .6 7.47a41.11 41.11 0 01.07 6.47 67.2 67.2 0 01-1.1 8.83 56 56 0 01-2.36 9.61 26.87 26.87 0 01-3.58 7c-1.16 1.48-2.47 2.86-3.72 4.27-.45.5-.92 1-1.41 1.45a4.06 4.06 0 01-.84.55c-.08.05-.26 0-.36-.07a.34.34 0 01-.14-.51c.9-1 1.79-2 2.75-3a27.63 27.63 0 007.18-12.71 75 75 0 002.07-10.93c.18-1.47.34-2.95.44-4.43a56.86 56.86 0 00-.36-10.1c-.5-4.56-.89-9.13-1.34-13.7a.65.65 0 00-.1-.38c-.06-.06-.31-.08-.35 0a9.62 9.62 0 00-.73 1.18c-1.61 3.42-3.17 6.86-4.84 10.25-1.88 3.82-3.9 7.56-7.37 10.27-.7.54-.71.77-.27 1.55a7 7 0 011.2 4 6.69 6.69 0 001.16 4.4c-.07.47-.39.58-.46.83a6.16 6.16 0 01-1.79-4.37 8.58 8.58 0 00-1.48-5.16 15.91 15.91 0 01-2.27-5.16 69.9 69.9 0 00-1.62-7.3 8.19 8.19 0 01-.38-2.2 18.88 18.88 0 00-.67-3.57 12.09 12.09 0 01-.48-4 15.85 15.85 0 012.62-7.78c.88-1.28 1.7-2.6 2.56-3.89 1.55-2.32 1.71-4.92 1.52-7.6a1 1 0 00-.67-.91c-.31-.11-.61-.26-.92-.4a3.36 3.36 0 00-3 .91c-1.19 1.29-2.48 2.48-3.62 3.81a90.5 90.5 0 00-13.36 20.92 87.1 87.1 0 00-7.35 23.89 55.85 55.85 0 00.38 20.74 28.94 28.94 0 004.74 10.86A18.59 18.59 0 00184.72 216a28.11 28.11 0 0012-2.58A51.7 51.7 0 00210.79 204c.39-.36.71-.8 1.1-1.16a.75.75 0 01.76-.15c.33.1.31.38.32.65 0 .87 0 1.76.11 2.62a58.38 58.38 0 01.41 6.47c0 .4 0 .81.08 1.21a82.48 82.48 0 01.17 13c-.26 4.65-.71 9.29-.84 13.95-.08 2.91-.18 5.81-.41 8.71q-.9 11.21-1.29 22.45c-.24 6.62-1 13.2-1.54 19.79-.14 1.68-.29 3.36-.52 5-.4 2.95-1 5.87-1.27 8.82-.4 4-1.3 8-2.07 12s-1.86 7.87-2.74 11.82c-.77 3.42-1.62 6.83-2.58 10.2-1.27 4.41-2.59 8.8-3.83 13.22a30.67 30.67 0 00-.91 4.56 5.38 5.38 0 001.89 5.06 12.31 12.31 0 005.83 2.65c3.65.7 7.31 1.28 11 1.64 2.83.27 5.64.66 8.45 1 3.55.43 7.1 1.09 10.66 1.25 4.94.21 9.76 1.41 14.7 1.5.26 0 .53.1.8.12a16.47 16.47 0 005.24-.24A3.06 3.06 0 00256.72 366.63zm-13.6-146.92a3.13 3.13 0 016.26.13 3.13 3.13 0 01-6.26-.13zm4.37 58.34a2.77 2.77 0 01-2.83-2.75 2.69 2.69 0 012.72-2.63 2.62 2.62 0 012.7 2.62A2.68 2.68 0 01247.49 278.05zM318.07 126a17.49 17.49 0 003.07 1.51c2.94 1.35 5.92 2.62 8.83 4 4.06 2 8.12 4 12.1 6.12q6.78 3.63 13.42 7.53c3 1.77 6 3.67 8.9 5.61a49.21 49.21 0 0113.37 13.11 20.76 20.76 0 013.56 10.62 49.1 49.1 0 01-1.72 15.63c-1.06 4.19-2.25 8.34-3.44 12.49-1.09 3.83-2.37 7.59-3.54 11.39-2 6.45-4.34 12.78-6.59 19.14q-2.5 7.07-5.37 14a23.11 23.11 0 01-3.66 6c-.17.21-.37.39-.55.6a2 2 0 01-2 .67 23.14 23.14 0 01-5.19-1.68 34.81 34.81 0 01-7-4.81 56.25 56.25 0 01-4.45-4.42c-2.09-2.21-4.2-4.4-6.29-6.61-.58-.61-.58-.7 0-1.35a24.33 24.33 0 014.83-4.89c.94-.63 1-.67 1.88.12.66.58 1.29 1.2 1.91 1.81 1.67 1.67 3.34 3.33 4.93 5.09s3.36 3.51 5.05 5.25a6.64 6.64 0 011.41 1.71.67.67 0 01-.61 1 1.8 1.8 0 01-1.14-.36 8.82 8.82 0 00-.82-.53c-.07 0-.23.08-.34.15s-.05.12 0 .17a2.42 2.42 0 002.68 1.64 1.68 1.68 0 001.3-2.15 3.92 3.92 0 00-1.17-1.86c-.8-.82-1.62-1.63-2.41-2.47-4.28-4.5-8.59-9-13.17-13.17-1.29-1.18-2.53-2.43-3.77-3.68a48.36 48.36 0 00-4.46-4.13c-.62-.49-.62-.61-.29-1.38 1.72-4 3.45-8.06 5.48-12 2.42-4.67 4.64-9.44 6.94-14.17l.1-.18c.69-1.67.09-2.61-1.72-2.68q-.4 0-.81 0a12.25 12.25 0 01-6.83-1.5c-1.53-.84-3.14-1.56-4.67-2.41a21.79 21.79 0 01-6.27-5.68c-.42-.52-.87-1-1.33-1.52a.36.36 0 00-.53 0 .51.51 0 00-.13.55c.17.62.71 1 1.05 1.47.57.83 1.63 1.43 1.76 2.41a7.82 7.82 0 01-.49 2.76 40.76 40.76 0 00-.88 6q-.46 5.36-.85 10.71c-.32 4.58-.57 9.17-.92 13.75-.13 1.67-.47 3.34-.72 5a.72.72 0 01-.8.72c-2.83-.08-5.09 1.25-7.11 3a51.1 51.1 0 01-11.71 7.56c-.79.38-1.55.82-2.31 1.25a4.35 4.35 0 00-1.36 1.2 2.19 2.19 0 001.51 3.64 7.44 7.44 0 002.82-.11 22 22 0 005.73-2 9.58 9.58 0 01.93-.39c.52-.12.66.14.6.6a23.62 23.62 0 01-8.75 6.71c-1.8.78-3.57 1.61-5.34 2.45a10.37 10.37 0 00-1.89 1.15 3.22 3.22 0 00-1.09 4.3 8.07 8.07 0 00.39.78c-.43.44-.89.84-1.26 1.3-1.27 1.58-.56 3 .87 3.64a1.74 1.74 0 00.57.19 16 16 0 012.41.08c.77.17 1.41.76 2.25.84a11.57 11.57 0 003.43-.14 3.66 3.66 0 011.77.08 14.25 14.25 0 006.62.18 27.3 27.3 0 0014.61-7.78 8 8 0 01.76-.66s.13 0 .23 0a3.17 3.17 0 01.46 1.47c1.08 5.63 2.21 11.25 3.2 16.9 1.05 6 2.06 12 3.29 17.91 1 4.89 2 9.78 3 14.67.9 4.36 1.83 8.71 2.75 13.07l3.72 17.83c1.24 5.94 2.53 11.87 3.72 17.83a36.77 36.77 0 01.7 6 11.44 11.44 0 01-.46 3.4 2.22 2.22 0 01-2.15 1.82 16.7 16.7 0 00-3.94.85c-2.72.8-5.44 1.58-8.2 2.24-1.7.4-3.47.5-5.19.86-4 .81-8 1.16-12 1.69-1.48.2-2.94.45-4.42.62a20.32 20.32 0 01-9.94-1.18 6.31 6.31 0 01-3.94-4.56c-.28-1-.51-2.09-.8-3.13-.81-2.87-1.11-5.83-1.65-8.75-.87-4.78-1.09-9.65-1.7-14.47-.86-6.69-1.31-13.43-2-20.14-.67-6.32-.94-12.66-1.2-19-.31-7.56-.56-15.12-.92-22.67-.12-2.56-.5-5.11-.79-7.66-.31-2.82-.65-5.63-1-8.45-.36-3.08-.74-6.16-1.09-9.25-.2-1.74-.44-3.48-.51-5.23-.18-4.13-.8-8.2-1.12-12.31-.14-1.68-.36-3.35-.49-5-.44-5.72-.86-11.44-1.06-17.18a9.11 9.11 0 011.46-5.34c1.2-2 2.38-3.92 3.59-5.87a84.59 84.59 0 004.26-8c1.52-3.16 2.94-6.37 4.34-9.59a88.49 88.49 0 003.85-10.85c.8-2.79 1.72-5.54 2.27-8.4a35 35 0 00.64-11.27 12.3 12.3 0 00-1.71-4.73 6.5 6.5 0 00-2.94-2.69c-.37-.16-.73-.35-1.09-.54s-.45-.48-.13-.78c.64-.61 1.3-1.19 1.95-1.78a3.46 3.46 0 001.08-1.17c.43-1.46 1.66-2.28 2.69-3.21s1.31-1.69.41-2.89c-3.81-5-7-10.6-11.85-14.8a3.11 3.11 0 01-1-1.49l-.71-1c.43-.37.9-.19 1.31-.1a49.32 49.32 0 019.06 2.75c2.23 1 4.41 2 6.64 3 5.23 2.16 10.31 4.64 15.44 7A4.58 4.58 0 00318.07 126zM176.93 493.76a26.21 26.21 0 01-11.54-2.35 7.28 7.28 0 01-2-1.34 5.35 5.35 0 01-1.56-5.36 10 10 0 011.9-3.76 25 25 0 016.77-5.7 109.6 109.6 0 0111.26-6.38 107 107 0 0112.78-5c.66-.2.89-.09 1.07.52.13.45.23.91.35 1.37a9.89 9.89 0 00.28 1 3.21 3.21 0 004.5 2.13 20.43 20.43 0 005.37-3.2 47.71 47.71 0 014-3.05c1.11-.68 2-.4 2.61.86a9.05 9.05 0 01.68 2.12 37.23 37.23 0 01.71 4.18 13.55 13.55 0 01-1.84 8 20.22 20.22 0 01-6.93 6.95 61 61 0 01-8.2 4.4c-1.72.76-3.52 1.36-5.3 2-1.34.45-2.72.79-4.08 1.18A47.3 47.3 0 01176.93 493.76zM310.85 458.28a11.36 11.36 0 0012.29-3.3c.69.45.71 1.19.9 1.8a66.12 66.12 0 002.48 6.4c1.37 3.31 3.19 6.39 4.79 9.58a30.85 30.85 0 013.23 9.54 13.32 13.32 0 01-.22 6.21 9.56 9.56 0 01-3.57 5 12.29 12.29 0 01-10.4 1.86c-4.75-1.09-7.75-4.12-9.6-8.46-1.69-4-1.81-8.14-1.43-12.34s.89-8.59 1.32-12.88C310.75 460.62 310.77 459.54 310.85 458.28z"/><path fill="#030202" d="M452.65,62.94a18.19,18.19,0,0,0-10.82-13.26,29.87,29.87,0,0,0-18.44-1.74c-11.35,2.3-20.3,11.32-23.26,22.42a14.62,14.62,0,0,0,.16,9c2.41,6.63,7.51,10,14.1,11.38a38.33,38.33,0,0,0,6.25.45.93.93,0,0,1,.92.58c.49,1,.56.92,1.34-.08a2.92,2.92,0,0,1,1.14-.81,45.78,45.78,0,0,1,8.35-3c2.77-.69,2.07-.44,2.71,1.72a1.19,1.19,0,0,1-.64,1.5,55.76,55.76,0,0,1-6.06,3.22c-.45.22-.71,0-.81-.54-.14-.73-.27-1.46-.41-2.18-.05-.27-.14-.54-.48-.52s-.47.43-.43.74c.08.73.2,1.47.35,2.19a1.3,1.3,0,0,1-.68,1.68,6.3,6.3,0,0,0-1.27,1c-.56.51-1,1.09-.73,1.94.21.59.86.76,1.95.65.52,0,1-.48,1.68-.18.16,1.47,1.11,2.83.78,4.45a.64.64,0,0,0,.35.67c.33.22.64.47,1,.72l.48-.38c1.4-1.07,1.6-1,2.62.36.16.22.31.44.48.65a4.49,4.49,0,0,0,1.53,1.31,2.06,2.06,0,0,0,3-1.18,4.3,4.3,0,0,0,.2-2.19c-.18-1.86-.18-1.86,1.64-2.44l.59-.16c.45-.13.93-.24,1-.84,0-.36-.41-.46-1.2-.28-.13,0-.25.09-.38.13-.31.1-.64.27-.93,0a1.42,1.42,0,0,1-.1-1.34c.18-.2.42-.35.6-.54,1.52-1.56,1.23-2.83-.88-3.31a1.59,1.59,0,0,1-1.35-1.47,5.17,5.17,0,0,0-.21-1c-.37-.82-.05-1.35.53-2,1.42-1.44,1.48-1.82,1.16-3.76,2.54-1.54,5-3.21,7.38-5a17.19,17.19,0,0,0,4.81-5.13A17.71,17.71,0,0,0,452.65,62.94Zm-25.9,34.91c-.37.12-.76.18-1.07.25s-.39-.07-.44-.15a.4.4,0,0,1,.09-.52,9.21,9.21,0,0,1,.92-.73c.25-.15.57-.43.82,0A.76.76,0,0,1,426.75,97.85Zm4.69-11a25.49,25.49,0,0,1-3.69,1,7.06,7.06,0,0,1-.41-2.19c-.62-3.11-1.2-6.23-1.79-9.35-.15-.79-.1-.82.71-1.11s1.86-.73,2.8-1.1a3.19,3.19,0,0,1,.18.61A63.42,63.42,0,0,0,431.88,86C432,86.54,432,86.78,431.44,86.89Zm-1.16-16.42a4.79,4.79,0,0,1,.79-2.73c.11-.14.28-.33.5-.18a.79.79,0,0,1,.36.41,3.44,3.44,0,0,1-1.07,2.87.46.46,0,0,1-.34.16c-.24,0-.23-.25-.24-.44Zm-2,26.32c-.27-.6-.23-1,.16-1.24a3.87,3.87,0,0,1,.34-.21,68.64,68.64,0,0,0,6.64-3.52c.15.29.21.34.21.41.06.72.67,1.46.34,2.13s-1.31.46-2,.73c-1.61.66-3.25,1.23-4.88,1.84C428.78,97,428.47,97.25,428.25,96.79Zm7.8,9.13c-.84.32-1.32-.42-1.84-.91a6,6,0,0,1-.64-.78c-.59-.83-.53-1,.43-1.39.69-.26,1.38-.5,2.08-.73a.44.44,0,0,1,.6.36c.1.45.14.92.17,1.15C436.86,104.65,437,105.57,436.05,105.92Zm2.07-10.29c.5.07.81.36.8.71a1,1,0,0,1-.7.85c-.33,0-.58-.45-.59-1.12A.39.39,0,0,1,438.12,95.63Zm-.56,4.19c.13.26.12.52-.17.66a8,8,0,0,1-.92.37l-4,1.28h0a1.24,1.24,0,0,1-.84.42,1.63,1.63,0,0,1-1.25.49.3.3,0,0,1-.26-.17.39.39,0,0,1,.13-.34c.27-.18.57-.31.85-.47h0l.86-.36a48.89,48.89,0,0,1,4.85-2.31C437.26,99.18,437.42,99.52,437.56,99.82Zm-.93-3.16c.41,1.44.42,1.46-1,2.09a46.64,46.64,0,0,0-5.59,2.74.49.49,0,0,1-.78-.26c-1-2.75-1-2.81,1.75-3.89,1.12-.45,2.26-.86,3.4-1.23a18.58,18.58,0,0,1,1.88-.4C436.46,96.16,436.56,96.41,436.63,96.66Zm.9-8.64a3.1,3.1,0,0,1-.88,1.3.35.35,0,0,1-.61-.14c-.12-.45-.23-.9-.32-1.36s.19-.66.72-.67c.15,0,.47.11.78.22A.51.51,0,0,1,437.53,88Zm7.81-7.59c-2.11,1.57-4.33,3-6.5,4.47-.43.3-1,.42-1.23,1a.44.44,0,0,1-.47.28,18.81,18.81,0,0,0-3.44.18.66.66,0,0,1-.73-.55c-1.1-3.89-2.37-7.74-2.64-11.82a1.8,1.8,0,0,1,.64-1.59,6.89,6.89,0,0,0,2-3.23,2.86,2.86,0,0,0-.15-2,1.4,1.4,0,0,0-2.32-.48,3.7,3.7,0,0,0-.92,1.56,7.72,7.72,0,0,0-.44,3.19,1.71,1.71,0,0,1-1.05,1.78,6.76,6.76,0,0,1-2,.91c-.67.14-1,0-1.23-.7a17.26,17.26,0,0,0-1.37-3.37,3.87,3.87,0,0,0-1.62-1.75,1.21,1.21,0,0,0-1.85.88,3.08,3.08,0,0,0,.12,1.59,6.46,6.46,0,0,0,3.07,3.88,2.29,2.29,0,0,1,1.23,1.68c.77,3.77,1.56,7.53,2.15,11.33.08.54,0,.94-.59,1.08l-.18.09a14.55,14.55,0,0,1-3.32,1.43,14.37,14.37,0,0,1-3.61-.3,25.86,25.86,0,0,1-5-.49,18.5,18.5,0,0,1-9.78-5.75A13.34,13.34,0,0,1,401,71.84a29.54,29.54,0,0,1,22.48-22.76,29.19,29.19,0,0,1,18.25,1.76A17.92,17.92,0,0,1,452,67.61,15.87,15.87,0,0,1,445.34,80.43ZM423.52,73c0,.05,0,.12,0,.18s-.15.25-.3.14a4.58,4.58,0,0,1-2.11-3.62.28.28,0,0,1,.41-.25,1.23,1.23,0,0,1,.46.36A8.1,8.1,0,0,1,423.52,73Z"/><path fill="#040202" d="M484.73,416.64a17.48,17.48,0,0,0-1.28-12.8c-2.95-6-7.74-9.67-14.37-10.58a30.29,30.29,0,0,0-19.84,4.13,31,31,0,0,0-14.8,28.33,13.72,13.72,0,0,0,2.64,7.33c4.13,5.58,9.91,7.39,16.55,7a40.89,40.89,0,0,0,5.76-1.1c.58-.13,1.05-.24,1.33.44,0,.11.19.19.3.27.37.25.92.05.86-.39-.09-.76.37-1.11.82-1.5a40.67,40.67,0,0,1,7.81-5.39c1.56-.83,1.4-1.12,2.35.73a5.52,5.52,0,0,0,.26.55,1.09,1.09,0,0,1-.17,1.45,53.67,53.67,0,0,1-5.47,5.08,8,8,0,0,1-1.34-2.34,6.61,6.61,0,0,0-.39-.68.46.46,0,0,0-.37-.05.51.51,0,0,0-.28.26,1.23,1.23,0,0,0,.15,1c.39.92.8,1.83,1.19,2.73-.48.59-.94,1.08-1.34,1.62a3.21,3.21,0,0,0-.7,1.66,1.11,1.11,0,0,0,1.07,1.21,2.94,2.94,0,0,0,1-.19c.38-.15.71-.4,1.07-.58a.63.63,0,0,1,1,.33c.54,1.21,1.62,2.15,1.69,3.61,0,.66.74.71,1.23.89s.67-.18.89-.55a3.63,3.63,0,0,1,1.41-1.06c.57.48,1.07.92,1.6,1.32a6.79,6.79,0,0,0,1.38.84,2.14,2.14,0,0,0,3.13-2.16,7.08,7.08,0,0,0-.33-1.57c-.13-.45-.35-.88-.49-1.33a.69.69,0,0,1,.27-.88c.46-.29.92-.56,1.37-.87a6,6,0,0,0,.91-.76.6.6,0,0,0,.1-.54.65.65,0,0,0-.53-.2c-.67.13-1.12.75-1.83.8-.61-.59-.82-1.18-.18-1.92a3.1,3.1,0,0,0,.52-1.08,1.47,1.47,0,0,0-1-1.9,1.83,1.83,0,0,0-1-.15c-1.05.36-1.48-.22-1.84-1-.22-.49-.49-1-.74-1.44a.9.9,0,0,1,0-.95,5.21,5.21,0,0,0,.59-1.05,4.79,4.79,0,0,0,.47-1.75,3,3,0,0,0-.68-1.45c2.07-2.42,4.08-4.7,6-7A16.52,16.52,0,0,0,484.73,416.64Zm-17.3,26.85a7.16,7.16,0,0,1-1,.67c-.21.12-.49.31-.71.1s-.06-.59.13-.85.48-.63.74-.92c.08-.08.24-.09.4-.15a2.87,2.87,0,0,1,.34.44C467.48,443,467.7,443.26,467.43,443.49Zm-1.28-9.79c-.33.21-.68.23-.84-.16-1.51-3.73-3.37-7.31-5.18-11a14.9,14.9,0,0,0,3.19-2.37c.64,1.41,1.17,2.69,1.79,3.93s1.34,2.48,2,3.71,1.44,2.43,2.25,3.79Zm-2.52-20.32a.56.56,0,0,1,.29-.23.39.39,0,0,1,.49.23c.67,1.36.15,2.52-.6,3.86A4.68,4.68,0,0,1,463.63,413.38Zm15.07,34.87a.93.93,0,0,1-1.18,1c-.92-.15-1.61-.62-2.79-1.91a13.35,13.35,0,0,1,2.94-2.08A4.87,4.87,0,0,1,478.7,448.25Zm-1.28-9.53a.88.88,0,0,1,1.17.41,1.16,1.16,0,0,1-.48,1c-.11,0-.26,0-.33-.09a1.73,1.73,0,0,1-.54-1A.25.25,0,0,1,477.42,438.72Zm.65,4a.59.59,0,0,1-.16,1c-1,.62-1.91,1.22-2.86,1.82a6.45,6.45,0,0,1-2.14,1.51.5.5,0,0,1-.29-.33,4.79,4.79,0,0,1,1.89-1.71l2.72-2.34A.52.52,0,0,1,478.07,442.75Zm-1.75-2.92c0,.06.09.11.12.16.79,1.25.79,1.3-.4,2.29-.87.73-1.79,1.42-2.64,2.17s-1.57,1.46-2.42,2.26c-.23-.17-.37-.23-.43-.33-.45-.82-1.31-1.57-1.22-2.47s1.29-1.24,2-1.83a22.23,22.23,0,0,1,3.84-2.58C475.69,439.21,476,439.31,476.32,439.83Zm-1-1.88a2.15,2.15,0,0,1-1,.75,41.92,41.92,0,0,0-5.1,3.56c-.26.2-.53.42-.84.06s-.46-.9-.15-1.26a4.26,4.26,0,0,1,.43-.42c1.83-1.55,3.61-3.17,5.31-4.91A7.28,7.28,0,0,1,475.3,438Zm-.77-5a.36.36,0,0,1-.63,0c-.13-.23-.24-.47-.37-.7s-.46-.76-.13-1.08a1.29,1.29,0,0,1,1.13-.21.51.51,0,0,1,.47.52A2.57,2.57,0,0,1,474.53,432.91Zm1.05-4.92c-.49.54-.77,1.26-1.32,1.67a6,6,0,0,1-1.91.6,7.32,7.32,0,0,1-2,.66,62.63,62.63,0,0,1-5.87-11,2,2,0,0,1,.17-1.91,6.12,6.12,0,0,0,1.06-3.82,2.73,2.73,0,0,0-.74-1.83,1.35,1.35,0,0,0-2.11.14,2.76,2.76,0,0,0-.54,1.5,9.62,9.62,0,0,0,.35,3.81,1.38,1.38,0,0,1-.41,1.64,10.62,10.62,0,0,1-1.85,1.56.87.87,0,0,1-1.35-.31c-.59-.83-1.14-1.69-1.79-2.46a8,8,0,0,0-1.65-1.47,1.62,1.62,0,0,0-2.06.05,1.82,1.82,0,0,0-.08,1.92,4.82,4.82,0,0,0,1.12,1.67,7,7,0,0,0,3.48,1.95,1.4,1.4,0,0,1,1.08.81c1.84,3.67,3.78,7.3,5.3,11.13a1.68,1.68,0,0,1,.07.39.48.48,0,0,1-.1.17,15.51,15.51,0,0,1-3.12,2.55c-1.16.56-2.61.51-3.91.8A23.51,23.51,0,0,1,451,439a18.82,18.82,0,0,1-8.3-2.34,13.42,13.42,0,0,1-7.13-11.31A29.34,29.34,0,0,1,442.16,405a30,30,0,0,1,26.61-10.71,18,18,0,0,1,15.17,14.53,15.89,15.89,0,0,1-3.34,13.3C479,424.17,477.29,426.08,475.58,428Zm-17.92-7a4.79,4.79,0,0,1-3.22-2.81.4.4,0,0,1,.15-.52.44.44,0,0,1,.37,0A6.5,6.5,0,0,1,457.66,421Z"/><path fill="#030202" d="M138.92,363.91a31.26,31.26,0,0,0-18.07-1.61c-10.83,2.06-20.9,11.21-23.6,23.52a14.1,14.1,0,0,0,2.12,11.42c3.44,5,8.34,7.5,14.29,8.09,1.2.11,2.42.12,3.64.15.84,0,1.56.13,1.89,1.11.15.43.89.38.93,0,.12-.93.85-1.17,1.49-1.46A46.33,46.33,0,0,1,131,401.9c.84-.17,1-.12,1.16.64.14.52.2,1.07.34,1.58a1,1,0,0,1-.5,1.19,44.29,44.29,0,0,1-5.5,3,1.91,1.91,0,0,1-1.37.36c-.18-1-.35-2-.57-3a.57.57,0,0,0-.42-.35.47.47,0,0,0-.5.51c.1.87.2,1.74.37,2.6.13.67.09,1.19-.63,1.49a3.18,3.18,0,0,0-.83.58,6.67,6.67,0,0,0-1,1,1.38,1.38,0,0,0-.15,1.53,1.18,1.18,0,0,0,1.24.49c.72-.05,1.44-.19,2.22-.3.23.83.44,1.61.66,2.38a7.42,7.42,0,0,1,.22.77,5.54,5.54,0,0,1,.07,1,1.71,1.71,0,0,0,1.06,1.69.61.61,0,0,0,.55-.1c.43-.76,1.2-.75,1.91-1,.34.49.62,1,.95,1.36a9.79,9.79,0,0,0,1.22,1.35,2.17,2.17,0,0,0,3.77-1.5c0-.61,0-1.21,0-1.82a2.88,2.88,0,0,1,0-1.4,15.44,15.44,0,0,1,2.47-.88,1.76,1.76,0,0,0,.64-.43c.1-.11.07-.37,0-.55a.39.39,0,0,0-.31-.2c-.53.1-1,.23-1.57.36a.47.47,0,0,1-.61-.35c-.27-.67-.23-.85.32-1.4a6.89,6.89,0,0,0,.72-.71,1.63,1.63,0,0,0-.75-2.74,6.81,6.81,0,0,0-1-.2.94.94,0,0,1-.79-.8,2.89,2.89,0,0,0-.1-.6c-.48-1.29-.54-2.4.74-3.4a2.17,2.17,0,0,0,.8-2.54c-.24-.61,0-.81.47-1.09a78.05,78.05,0,0,0,7.36-5,17,17,0,0,0,6.8-14.05A18.88,18.88,0,0,0,138.92,363.91Zm-14.54,48.18a2.88,2.88,0,0,1-1.89.36c.05-.84.72-1.1,1.24-1.48a.48.48,0,0,1,.7,0C124.69,411.32,124.67,412,124.38,412.09Zm.81-9.69a14.29,14.29,0,0,1-.7-3.62c-.55-2.71-1-5.42-1.56-8.14-.14-.73-.09-.92.56-1,1.09-.14,1.94-.91,3.07-1.14.36,4.32,1.66,8.36,2.84,12.53Zm3.11-17.34a1.23,1.23,0,0,1-.15.35c-.12.15-.28.33-.5.21a.45.45,0,0,1-.16-.31,2.07,2.07,0,0,1,.3-1.51,2.92,2.92,0,0,1,.78-1.8.4.4,0,0,1,.34-.12.4.4,0,0,1,.26.26,3.62,3.62,0,0,1,.09,1,3.44,3.44,0,0,1-1,1.94Zm-2.69,26.13a1,1,0,0,1,.32-1.37c.41-.23.83-.45,1.26-.65a49.76,49.76,0,0,0,5-2.65,3,3,0,0,1,.58-.2c.49.66.36,1.46.62,2.14.11.31-.11.48-.41.55a39.21,39.21,0,0,0-6.47,2.3C126.2,411.44,125.85,411.56,125.61,411.19Zm8.47,8.35a1,1,0,0,1-1.59.62c-.73-.41-1.19-1-2.05-2.5a18.31,18.31,0,0,1,3.41-1.33A5.72,5.72,0,0,1,134.08,419.54Zm1.56-9.52.19.07c.58.25.68.59.33,1.1a1,1,0,0,1-.88.48c-.12-.36-.26-.74-.36-1.12S135.1,409.84,135.64,410Zm-.76,4.1c.12.36.12.72-.25.84-1.82.63-3.65,1.22-5.48,1.82a.79.79,0,0,1-.72.37h0a2,2,0,0,1-.65.28c-.23,0-.28-.17,0-.32a1.24,1.24,0,0,1,1-.75c1.72-1,3.6-1.72,5.4-2.57C134.52,413.6,134.74,413.74,134.88,414.12Zm-.66-2.25a.62.62,0,0,1-.37.81l-.18.1a72.76,72.76,0,0,0-6.86,3.41c-.29-1.12-.5-2-.74-2.8-.11-.38,0-.65.32-.82a36.71,36.71,0,0,1,6.41-2.34c.82-.2,1-.06,1.21.86Q134.1,411.48,134.22,411.87Zm.57-9.49a.89.89,0,0,1-.11.37c-.25.38-.44,1-.92.94s-.45-.7-.58-1.12a1.25,1.25,0,0,1,0-.19c-.09-.63.1-.82.86-.75a3.76,3.76,0,0,1,.48.11A.5.5,0,0,1,134.79,402.38Zm7.11-7c-2,1.38-4,2.71-6,4.06a3,3,0,0,0-.78.61.88.88,0,0,1-.84.42,10.58,10.58,0,0,0-3.7.39c-.61-2.12-1.2-4.11-1.74-6.11a41.66,41.66,0,0,1-1.13-6.37,1.75,1.75,0,0,1,.58-1.61,14.62,14.62,0,0,0,1.52-1.89,3.71,3.71,0,0,0,.64-2.1,2,2,0,0,0-1.15-2.16,2,2,0,0,0-2,1.33,5.79,5.79,0,0,0-.6,2.13c0,.68-.13,1.35-.16,2a1.4,1.4,0,0,1-.77,1.32c-.53.28-1,.62-1.6.85-1.3.55-1.52.42-2-.95a14.45,14.45,0,0,0-1.72-3.64,2.3,2.3,0,0,0-1.61-1.12,1.14,1.14,0,0,0-1.36.9,3.47,3.47,0,0,0,.24,2.17,6.82,6.82,0,0,0,3,3.44,1.92,1.92,0,0,1,1.1,1.35q1,5.35,2.06,10.72c.08.4.08.81.13,1.21a.6.6,0,0,1-.36.65c-1.15.56-2.3,1.12-3.46,1.65a1.06,1.06,0,0,1-.58.08c-2.27-.41-4.58-.29-6.84-.64a17.78,17.78,0,0,1-11.85-6.71,13.37,13.37,0,0,1-2.38-11.88,29.71,29.71,0,0,1,14.33-19,28.58,28.58,0,0,1,18.35-3.46,25.33,25.33,0,0,1,8.86,2.61,17.88,17.88,0,0,1,7.46,23.71A17.23,17.23,0,0,1,141.9,395.41ZM121,388a5,5,0,0,1-2.59-3.61.62.62,0,0,1,.2-.52.68.68,0,0,1,.55.12,1.3,1.3,0,0,1,.37.46A10,10,0,0,1,121,388Z"/><path fill="#0b0909" d="M271.84,73.24a2.45,2.45,0,0,0-3-.85,4.12,4.12,0,0,0-2.28,3.8,3.53,3.53,0,0,0,.65,2.19,2.67,2.67,0,0,0,3.55.76A4.39,4.39,0,0,0,271.84,73.24Zm-3.59,3.65a2.7,2.7,0,0,1,.27-3.31,1,1,0,0,1,1.11-.24c.38.13.58.59.56,1.37a4,4,0,0,1-.88,2.21A.75.75,0,0,1,268.25,76.89Zm2.56.93a.41.41,0,0,1-.37,0,.94.94,0,0,1-.23-1.26c.08-.15.31-.21.52-.33a1.93,1.93,0,0,1,.35.46A.91.91,0,0,1,270.81,77.82Z"/><path fill="#010101" d="M237.69,66.46a4.6,4.6,0,0,0-2.38-2.09,5.33,5.33,0,0,0-5.63,1.08,7.56,7.56,0,0,0-2.53,5.82,6.46,6.46,0,0,0,.6,2.84,5.1,5.1,0,0,0,6.92,2.54A7.42,7.42,0,0,0,237.69,66.46Zm-5.76,5.41a3.91,3.91,0,0,1-.9.77,1,1,0,0,1-1.45-.58,2.83,2.83,0,0,1-.18-1A6.3,6.3,0,0,1,231.2,67c.79-.79,1.61-.52,1.89.6a6.19,6.19,0,0,1,.13.72A7.12,7.12,0,0,1,231.93,71.87ZM234.45,74a.81.81,0,0,1-.74.55.39.39,0,0,1-.45-.28,1.23,1.23,0,0,1,.53-1.36,1.06,1.06,0,0,1,.37-.07c.05,0,.13,0,.17.07A1,1,0,0,1,234.45,74Z"/><path fill="#030202" d="M88.71,131.9a31.44,31.44,0,0,0-12.15-9.17,28.28,28.28,0,0,0-12.21-2.43,31.11,31.11,0,0,0-13.26,3.23,27.85,27.85,0,0,0-10,7.8,14.14,14.14,0,0,0-3,10.8,18.88,18.88,0,0,0,8.09,13.24c1.09.78,2.25,1.49,3.41,2.17a1.54,1.54,0,0,1,.9,1.61c0,.68.54.94,1,.48a1.42,1.42,0,0,1,1.06-.4,16.93,16.93,0,0,1,3.62.39,36.2,36.2,0,0,1,6.89,1.57c.74.27.87.48.68,1.17-.15.52-.33,1-.51,1.53a1,1,0,0,1-.9.67,57,57,0,0,1-7.28-.16.41.41,0,0,1-.39-.57c.29-.82.61-1.63.91-2.46a.56.56,0,0,0-.24-.7.42.42,0,0,0-.64.24c-.39.86-.72,1.74-1.06,2.62a1.09,1.09,0,0,1-1,.79,5.79,5.79,0,0,0-2.56.49c-.5.27-.9.59-.86,1.24s.4.81.8,1.08c.62.41,1.45.34,2,.87a5.3,5.3,0,0,1-.46,1.95,4.07,4.07,0,0,1-1,2.38c-.28.25.1,1.56.47,1.81a.41.41,0,0,0,.37.05c.75-.42,1.43-.05,2.2.15,0,.32,0,.65,0,1a7.37,7.37,0,0,0,.44,2.38,2.37,2.37,0,0,0,1.79,1.74,2.2,2.2,0,0,0,2.23-1.09,13.15,13.15,0,0,0,1-1.77c.57-1.19.56-1.19,1.81-.9.26.06.52.14.78.19a8.25,8.25,0,0,0,1.2.17.51.51,0,0,0,.54-.48.56.56,0,0,0-.31-.45c-.62-.24-1.26-.42-1.9-.62.43-1.24.42-1.26,1.38-1.48a3.44,3.44,0,0,0,1.29-.54,1.49,1.49,0,0,0,.35-2.15,1.36,1.36,0,0,0-.38-.47,1.67,1.67,0,0,1-.59-2.42c.2-.42.28-.9.44-1.34a1,1,0,0,1,.72-.64,9.27,9.27,0,0,0,1.18-.3,2.6,2.6,0,0,0,2-2.56,73,73,0,0,0,8.92-.52,17.23,17.23,0,0,0,10.35-4.6A19.08,19.08,0,0,0,88.71,131.9Zm-38.26,34a2.62,2.62,0,0,1,1.87-.56c.28,0,.52.13.52.47s-.18.72-.53.76A2,2,0,0,1,50.45,165.94Zm6.94,11.54a1.38,1.38,0,0,1-1.25.84c-.76,0-.91-.68-1.17-1.2a.65.65,0,0,1,0-.2c-.45-2.56-.59-2.59,1.94-2.14.45.08.89.23,1.49.39A6.43,6.43,0,0,1,57.39,177.48Zm2.36-3.23c-1-.15-2-.35-2.93-.54-.52-.1-1-.23-1.55-.35-.39-.27-.88-.06-1.28-.28l-.7-.1c-.14-.08-.18-.15-.14-.22s.09-.11.14-.11a8,8,0,0,1,2.44,0c.7.34,1.51,0,2.22.32.66,0,1.32,0,2,.07a.47.47,0,0,1,.41.57C60.3,174,60.17,174.31,59.75,174.25Zm1.49-4c-.53,1.46,0,1.73-2.14,1.57a38.06,38.06,0,0,0-6.56-.39,2.62,2.62,0,0,1,0-.62c.91-3.42.38-2.84,3.48-2.48a23.23,23.23,0,0,1,4.74,1A.68.68,0,0,1,61.24,170.29ZM58,167.59c-1.18-.22-2.39-.36-3.58-.55-.31,0-.71-.07-.65-.55a1,1,0,0,1,.83-1h.2a75.6,75.6,0,0,0,7.73.26,9,9,0,0,1-.85,2.64C60.45,168.12,59.23,167.82,58,167.59Zm5.38,3.57a1.92,1.92,0,0,1-.23.45.82.82,0,0,1-.92.2c-.29-.09-.27-.66,0-1.25a.38.38,0,0,1,.49-.22A1.12,1.12,0,0,1,63.38,171.16Zm-1.27-11.52-4.45-1c1.64-4,3-8,4.35-12.05a11.77,11.77,0,0,0,3.89.6c-.71,2.15-1.63,4.09-2.14,6.17S62.67,157.5,62.11,159.64Zm-.23-17.85c-.21.65.26,1.51-.6,2a3.55,3.55,0,0,1-.62-2.07,3,3,0,0,1,.45-2.12.43.43,0,0,1,.33-.15.42.42,0,0,1,.3.19,3.74,3.74,0,0,1,.17,1.79A1.75,1.75,0,0,1,61.88,141.79Zm4.35,21.64a1.92,1.92,0,0,1-1.92.66c.14-.52.24-.9.35-1.28s.24-.73.58-.69a1.23,1.23,0,0,1,1.05.77A.63.63,0,0,1,66.23,163.43Zm16-4.08a17.18,17.18,0,0,1-5.62,1.56c-2.82.27-5.64.55-8.48.61-1.36,0-1.35.07-2.18-.35s-1.7-.79-2.73-1.27c.77-2.8,1.45-5.48,2.25-8.12.41-1.35,1-2.62,1.55-3.94a1.63,1.63,0,0,1,1.31-1.12,7,7,0,0,0,2.59-1.1,3.86,3.86,0,0,0,1.61-2,1.46,1.46,0,0,0-.31-1.68,1.51,1.51,0,0,0-1.69-.25,5.5,5.5,0,0,0-2.06,1.59,9.9,9.9,0,0,0-1.27,1.82,1.58,1.58,0,0,1-1.65.9,14.35,14.35,0,0,1-1.61-.07c-1.41-.17-1.53-.35-1.26-1.82a15.6,15.6,0,0,0,.39-3.61,3.77,3.77,0,0,0-.47-1.74,1.27,1.27,0,0,0-2.18-.15,4.3,4.3,0,0,0-.77,3.06,6.23,6.23,0,0,0,1,3.45,1.52,1.52,0,0,1,.18,1.51c-1.23,3.64-2.35,7.32-3.82,10.87-.4,1-.41,1-1.48.91s-2-.18-3-.27a1.75,1.75,0,0,1-.9-.38c-1.58-1.14-3.22-2.21-4.81-3.35a18,18,0,0,1-7.33-11,13.35,13.35,0,0,1,3.28-12.21,28.27,28.27,0,0,1,11.82-7.91c12-4.32,23.84-.87,32.16,8a17.51,17.51,0,0,1,4.94,11.25C92.07,150,87.77,156.71,82.19,159.35ZM68.37,145.28a5.61,5.61,0,0,1,2.41-2.57.68.68,0,0,1,.54,0c.22.1.2.35.14.53A3.2,3.2,0,0,1,68.37,145.28Z"/><path fill="#020101" d="M253.53 79.48c.25-.45.48-.89.69-1.35C254 78.6 253.77 79 253.53 79.48zM254.78 76.78c-.16.39-.31.78-.47 1.15C254.48 77.55 254.63 77.17 254.78 76.78z"/><path fill="#0d0707" d="M360,26.84c-.09.24-.12.56-.42.63-3.34.74-6.12,2.71-9.12,4.17-5.33,2.58-10.59,5.3-15.83,8-3,1.56-5.88,3.28-8.8,5a2.72,2.72,0,0,0-1.32,1.21.43.43,0,0,1-.68.1.6.6,0,0,1-.18-.72,1.8,1.8,0,0,1,.81-.87c1.72-1.06,3.4-2.19,5.17-3.17,6.61-3.63,13.35-7,20.09-10.38,2.64-1.33,5.28-2.67,7.94-4a3.85,3.85,0,0,1,1.69-.63A.72.72,0,0,1,360,26.84Z"/><path fill="#0d0808" d="M157.27 66.23c-.12 0-.2 0-.25-.06s-.37-.22-.42-.38c-.11-.31.13-.5.4-.56l3.75-.79c2.11-.43 4.21-.89 6.32-1.3 4.23-.83 8.46-1.61 12.69-2.45 4-.81 8.05-1.63 12.06-2.5a6.68 6.68 0 002.65-.93c.05 0 .25.06.34.14a.47.47 0 01.1.55 1.3 1.3 0 01-.76.64c-.83.27-1.67.52-2.51.73-4.19 1-8.43 1.78-12.66 2.59-3.76.72-7.54 1.36-11.28 2.24-2.62.62-5.26 1.16-7.89 1.7C159 66 158.08 66.11 157.27 66.23zM192.12 52.55c-2-.28-4-.54-6.09-.89-4.66-.76-9.31-1.54-14-2.38-2.32-.42-4.6-1.08-6.93-1.46-2.66-.45-5.28-1.1-7.91-1.67a2.66 2.66 0 01-.75-.26.43.43 0 01-.2-.52.42.42 0 01.39-.37 1.37 1.37 0 01.4 0c3.83.8 7.65 1.63 11.48 2.4 6.35 1.29 12.73 2.42 19.12 3.44 1.67.26 3.35.4 5 .58.36 0 .73.14.69.52s-.36.54-.74.56zM363.55 45.3c.81 0 1.61 0 2.42 0 .09 0 .22.14.25.25A.38.38 0 01366 46a3.45 3.45 0 01-.79.15c-4.64.4-9.28.76-13.92 1.2-4.83.45-9.65 1-14.44 1.86-1.92.34-3.84.74-5.77 1a2.65 2.65 0 01-.79 0 .68.68 0 01-.4-.38c-.11-.3.08-.5.37-.56 2.32-.45 4.63-.93 6.95-1.31 2.67-.43 5.34-.84 8-1.13 5.36-.57 10.74-1.05 16.11-1.57.74-.07 1.49-.08 2.23-.12z"/><path fill="#0f0c0c" d="M192.27,46.43c-.07.23-.21.42-.42.37a1.9,1.9,0,0,1-.7-.34c-2.05-1.53-4.11-3-6.13-4.61a76.88,76.88,0,0,1-11.85-11.8c-1-1.2-2-2.38-3-3.58a.62.62,0,0,1,0-.55.46.46,0,0,1,.7-.1,6.75,6.75,0,0,1,.84.85l5.41,6.27a71.87,71.87,0,0,0,10.41,9.54q2.16,1.67,4.3,3.35C192.05,46,192.32,46.12,192.27,46.43Z"/><path fill="#100a0a" d="M329.6,55a2.16,2.16,0,0,1,.52.15c2.78,1.54,5.73,2.71,8.63,4,3.33,1.45,6.71,2.8,10.07,4.18.94.39,1.91.69,2.84,1.06q1.13.45,2.22,1c.34.17.83.4.61.88s-.59.17-.92.06-.77-.24-1.14-.39c-4.94-2-9.92-3.86-14.77-6.07-2.57-1.18-5.21-2.22-7.67-3.63a3.87,3.87,0,0,1-.78-.62.38.38,0,0,1,0-.36C329.28,55.15,329.44,55.11,329.6,55Z"/><path fill="#140e0e" d="M401.05,47.14c-.13.14-.2.3-.3.32a1,1,0,0,1-.57-.05c-3.13-1.7-6.54-2.78-9.73-4.36-1.68-.84-3.37-1.65-5.06-2.48-.3-.15-.59-.32-.88-.48a.51.51,0,0,1-.26-.68.58.58,0,0,1,.72-.19q1.13.45,2.22,1L395,43.83c1.34.61,2.7,1.18,4,1.81a15,15,0,0,1,1.72,1C400.93,46.76,401,47,401.05,47.14Z"/><path fill="#120f0f" d="M55.13,109.69c-.13.15-.2.28-.31.33a.67.67,0,0,1-.37,0,.29.29,0,0,1-.16-.11c-2.21-3.56-5-6.69-7.29-10.19-.8-1.24-1.64-2.47-2.45-3.71-.22-.33-.48-.67-.21-1.1s.66-.08,1.11.5a7.11,7.11,0,0,1,.47.65c2.54,3.91,5.35,7.62,8.07,11.39a18.87,18.87,0,0,1,1,1.73A2,2,0,0,1,55.13,109.69Z"/><path fill="#140d0d" d="M82 353.53a1.26 1.26 0 01.39 0q.66.26 1.29.57c3.73 1.83 7.52 3.55 11.34 5.2 1 .42 1.93.94 2.88 1.45a1.62 1.62 0 01.49.6.44.44 0 01-.11.36.71.71 0 01-.32.17.35.35 0 01-.2 0c-3-1.72-6.4-2.77-9.53-4.3l-5.61-2.73c-.36-.18-.77-.31-.94-.72a.5.5 0 010-.36C81.72 353.67 81.85 353.61 82 353.53zM412.08 398c.38.06 1 .12 1.58.24 3.69.79 7.42 1.36 11.15 1.91 1.14.16 2.25.42 3.37.66a3 3 0 01.75.29.44.44 0 01.23.5.46.46 0 01-.59.4c-4.39-1.06-8.93-1.27-13.33-2.25-1.25-.28-2.5-.54-3.75-.83-.26-.06-.5-.22-.45-.56s.38-.32.62-.38C411.72 397.92 411.79 397.94 412.08 398z"/><path fill="#231313" d="M79.81,381a75.44,75.44,0,0,0-8.29.31,1.08,1.08,0,0,1-.57-.15.49.49,0,0,1-.21-.31.45.45,0,0,1,.11-.35,1.92,1.92,0,0,1,.71-.33c.93-.11,1.87-.24,2.81-.26,3,0,5.93,0,8.9,0a15.2,15.2,0,0,1,2,.2.52.52,0,0,1,.51.51c0,.33-.25.44-.53.44-.68,0-1.35,0-2,0Z"/><path fill="#141313" d="M456.35 380.59c0 .39-.15.56-.37.58a.49.49 0 01-.37-.1 3.44 3.44 0 01-.73-1.42c-1.3-3-2.57-6.09-3.89-9.12-.43-1-1-1.92-1.44-2.9a.5.5 0 01.27-.66.39.39 0 01.53.15 13.57 13.57 0 01.86 1.36A77.63 77.63 0 01455 377q.61 1.5 1.2 3A4.74 4.74 0 01456.35 380.59zM130 347.72l-.15 1a.22.22 0 01-.3.19c-.12 0-.3-.05-.35-.14a4.51 4.51 0 01-.44-1.73c-.44-3.14-.86-6.28-1.33-9.41-.17-1.19-.46-2.37-.67-3.56 0-.2.14-.36.35-.43a.43.43 0 01.52.18 1.47 1.47 0 01.24.54 27.87 27.87 0 01.7 2.94C129.09 340.75 129.53 344.23 130 347.72z"/><path fill="#171616" d="M432.67,34a.61.61,0,0,1-.54.54.58.58,0,0,1-.44-.34c-.19-1-.37-2-.48-3-.41-3.53-.88-7.06-1.64-10.54a4.23,4.23,0,0,1-.09-1,.38.38,0,0,1,.37-.39.48.48,0,0,1,.49.25,6.67,6.67,0,0,1,.39,1.14c.29,1.38.62,2.76.81,4.15.42,2.93.76,5.86,1.12,8.79A2.47,2.47,0,0,1,432.67,34Z"/><path fill="#111" d="M451.54,26.4c-.28,1.83-.59,3.89-.9,5.94-.29,1.86-.58,3.71-.88,5.57a9.41,9.41,0,0,1-.3,1.16.47.47,0,0,1-.59.39.41.41,0,0,1-.3-.45c0-.6.05-1.2.14-1.8.24-1.66.53-3.31.77-5,.3-2.12.57-4.25.88-6.38a2.25,2.25,0,0,1,.36-1.33.47.47,0,0,1,.34-.13.45.45,0,0,1,.31.19C451.66,25.09,451.44,25.64,451.54,26.4Z"/><path fill="#140f0f" d="M100.52,127.25c-.19-.1-.33-.22-.28-.46a3.4,3.4,0,0,1,.86-1.34c1.66-2.11,3.36-4.2,5-6.31.92-1.16,1.79-2.35,2.7-3.51a2.25,2.25,0,0,1,.59-.52.41.41,0,0,1,.36.07.48.48,0,0,1,.2.32c0,.44-.26.75-.48,1.07-1.71,2.58-3.77,4.89-5.7,7.3-.84,1-1.72,2.06-2.57,3.1A.77.77,0,0,1,100.52,127.25Z"/><path fill="#121111" d="M88.4,114.56c-.08-.08-.21-.16-.24-.26a1.7,1.7,0,0,1,.23-1.16c.9-2.17,1.81-4.34,2.66-6.54.71-1.81,1.35-3.66,2-5.49.09-.25.18-.5.28-.75a.46.46,0,0,1,.49-.27c.38,0,.4.33.4.58a2.33,2.33,0,0,1-.14.78c-.38,1.22-.71,2.46-1.19,3.64-1.15,2.87-2.37,5.71-3.57,8.56a3.46,3.46,0,0,1-.55.82C88.73,114.55,88.55,114.53,88.4,114.56Z"/><path fill="#191111" d="M422.1,423.22c-.14.43-.46.51-.79.6l-4.87,1.28a71.79,71.79,0,0,0-8.1,2.43,1,1,0,0,1-.39.07.47.47,0,0,1-.45-.33c-.12-.23,0-.39.16-.53a1.86,1.86,0,0,1,.5-.32,21.52,21.52,0,0,1,2.07-.79c3.23-.9,6.48-1.77,9.72-2.65a3.64,3.64,0,0,1,1.79-.15C421.89,422.86,422,423.1,422.1,423.22Z"/><path fill="#150f0f" d="M21.75,112.55a3.32,3.32,0,0,1,.72.11,14.79,14.79,0,0,1,1.46.66c3.24,1.65,6.34,3.53,9.45,5.38a4.32,4.32,0,0,1,.5.33c.7.51,1,1,.66,1.23-.53.31-.86-.13-1.25-.36-3.59-2.1-7.18-4.2-10.9-6.07a4.64,4.64,0,0,1-.87-.49.77.77,0,0,1-.15-.54C21.37,112.74,21.57,112.67,21.75,112.55Z"/><path fill="#111" d="M473.91,380.57c0,.52,0,.91-.38,1s-.56-.28-.6-.63c-.1-.8-.2-1.6-.29-2.41q-.66-5.31-1.29-10.62a7.89,7.89,0,0,1,0-1.19.21.21,0,0,1,.29-.21c.12,0,.29,0,.36.11a2.19,2.19,0,0,1,.49,1.29c.25,1.87.53,3.74.73,5.61C473.51,375.92,473.71,378.34,473.91,380.57Z"/><path fill="#141010" d="M457.54,49.91c-.19-.08-.38-.18-.37-.42a1.32,1.32,0,0,1,.13-.56,10.38,10.38,0,0,1,.85-1.36,85.78,85.78,0,0,1,7.63-8.31,7.47,7.47,0,0,1,1-.7.43.43,0,0,1,.55.08.46.46,0,0,1,0,.7,4.37,4.37,0,0,1-.42.44c-2.23,2.13-4.34,4.39-6.39,6.7a16.7,16.7,0,0,0-2.35,3C458,49.71,457.87,50,457.54,49.91Z"/><path fill="#131010" d="M154.89,364.25c-.07-.05-.24-.11-.25-.19a1.52,1.52,0,0,1,0-.77,14.31,14.31,0,0,1,1.22-1.84,96,96,0,0,1,6.82-7.44,3.57,3.57,0,0,1,1.45-1.06.47.47,0,0,1,.54.71c-.22.25-.46.48-.7.72-2.33,2.24-4.52,4.61-6.65,7-.7.8-1.29,1.71-1.93,2.57A.51.51,0,0,1,154.89,364.25Z"/><path fill="#160f0f" d="M116,135.29c.38.05.57.11.64.32a.47.47,0,0,1-.31.64c-1.29.38-2.6.71-3.88,1.1-2.06.62-4.11,1.29-6.17,1.92a12.44,12.44,0,0,0-3,1.26.62.62,0,0,1-.75,0c-.2-.16-.09-.63.25-.84a9.13,9.13,0,0,1,1.58-.89,101.13,101.13,0,0,1,10.78-3.36A4.64,4.64,0,0,1,116,135.29Z"/><path fill="#121111" d="M491.23,376.44c.06.39-.21.64-.38.92-1.55,2.61-3,5.28-4.34,8a18.06,18.06,0,0,0-1.55,3.72c-.06.24-.24.51-.58.39a.61.61,0,0,1-.39-.64,1.74,1.74,0,0,1,.13-.59c.22-.64.4-1.29.68-1.9,1.34-2.95,2.88-5.8,4.5-8.6a4.14,4.14,0,0,1,1.22-1.59.79.79,0,0,1,.55,0C491.15,376.14,491.18,376.34,491.23,376.44Z"/><path fill="#131313" d="M146.49,349.71c.18-1.47.32-2.94.54-4.41a55.5,55.5,0,0,0,.73-5.59l0-.2c0-.36.2-.72.56-.73s.57.32.56.7a14.35,14.35,0,0,1-.08,1.61c-.54,4-1.14,8-1.94,12-.16.22-.13.54-.36.73h-.38a1.29,1.29,0,0,1-.09-1.26l.13-1.08C146.52,350.89,146.18,350.24,146.49,349.71Z"/><path fill="#1c1414" d="M17,137.33c-1,0-1.65-.24-1.54-.56.19-.55.69-.57,1.16-.62,2.89-.27,5.78-.55,8.67-.81.67-.05,1.35,0,2,0,.38,0,.73.2.7.56s-.38.52-.76.53l-.61,0a67.55,67.55,0,0,0-8.86.82C17.42,137.3,17.08,137.32,17,137.33Z"/><path fill="#191212" d="M88,397.67c0,.12,0,.27-.1.35a4.26,4.26,0,0,1-.63.49q-3.84,2.43-7.4,5.23A5.23,5.23,0,0,1,78,404.86c-.13,0-.34-.15-.46-.29a.35.35,0,0,1,0-.36,1.36,1.36,0,0,1,.38-.45c2.68-2,5.37-4,8.24-5.79a3.1,3.1,0,0,1,1.43-.67C87.79,397.29,87.91,397.47,88,397.67Z"/><path fill="#181111" d="M390.62,83.38c-.05.11-.09.35-.23.44-.66.46-1.37.85-2,1.32-1.92,1.37-3.83,2.74-5.72,4.14a7.47,7.47,0,0,1-1.89,1.15.45.45,0,0,1-.54-.15.48.48,0,0,1,0-.55,1.24,1.24,0,0,1,.27-.29,96.81,96.81,0,0,1,8.6-6,1.72,1.72,0,0,1,1.1-.43A.43.43,0,0,1,390.62,83.38Z"/><path fill="#161313" d="M428.59,439.24c-.08.15-.11.37-.24.5a95.94,95.94,0,0,0-6.61,7.92,5.84,5.84,0,0,1-.89.83.37.37,0,0,1-.53,0,.7.7,0,0,1-.17-.53,1.11,1.11,0,0,1,.28-.52,96.36,96.36,0,0,1,6.35-7.62,11.26,11.26,0,0,1,1.23-1c.06-.05.26,0,.35.08A1.7,1.7,0,0,1,428.59,439.24Z"/><path fill="#151414" d="M74,107.26c-.21.56.52,1.48-.5,2-.76-.5-.52-1.32-.59-2-.27-2.55-.46-5.11-.69-7.66a5.67,5.67,0,0,1,.17-2.39c0-.11.21-.26.28-.24a1,1,0,0,1,.48.29.67.67,0,0,1,.1.38C73.45,100.79,73.69,104,74,107.26Z"/><path fill="#161212" d="M107.37,341.4c.38,0,.54.32.73.59,1.7,2.5,3.42,5,5.11,7.48a13,13,0,0,1,1,1.74.56.56,0,0,1-.2.51c-.12.07-.36,0-.55-.08s-.09-.09-.13-.14c-1.92-2.75-3.85-5.5-5.76-8.26a2.43,2.43,0,0,1-.59-1.45A.41.41,0,0,1,107.37,341.4Z"/><path fill="#161111" d="M441.93,387.8a1.24,1.24,0,0,1-.34.18c-.38.09-.62-.18-.87-.39-2.08-1.71-4.16-3.4-6.21-5.13a22,22,0,0,1-2-2,.46.46,0,0,1,.06-.71.44.44,0,0,1,.55,0,1,1,0,0,1,.17.1q3.9,3.35,7.78,6.7a5.66,5.66,0,0,1,.79.9C442,387.51,441.92,387.67,441.93,387.8Z"/><path fill="#161212" d="M416.86,37.18c-.12.08-.29.26-.45.25a.79.79,0,0,1-.47-.33q-2.79-3.94-5.55-7.92a8.37,8.37,0,0,1-.73-1.43.45.45,0,0,1,.25-.65c.15-.06.37.06.55.12s.08.1.12.16q3,4.41,6,8.83C416.77,36.48,417,36.74,416.86,37.18Z"/><path fill="#181717" d="M442.58,456.88A44.62,44.62,0,0,1,444,450c.31-1,.64-2.05,1-3.07a.47.47,0,0,1,.87.33c-.24,1-.58,1.93-.8,2.91a56,56,0,0,0-1.33,6.92,1.24,1.24,0,0,1-.13.58c-.1.16-.29.35-.45.35s-.36-.18-.43-.33A3.44,3.44,0,0,1,442.58,456.88Z"/><path fill="#151212" d="M102.75,409.71a2.9,2.9,0,0,1-.19.54,58.46,58.46,0,0,0-4.64,9,1.44,1.44,0,0,1-.36.46.4.4,0,0,1-.35.06.48.48,0,0,1-.28-.26,1.19,1.19,0,0,1,0-.59c.16-.51.34-1,.55-1.52a51.73,51.73,0,0,1,3.86-7.09,2,2,0,0,1,.79-.89.55.55,0,0,1,.38,0C102.58,409.45,102.65,409.58,102.75,409.71Z"/><path fill="#171212" d="M34.33,153.18c.09,0,.28.1.3.18a.85.85,0,0,1-.05.55,1.16,1.16,0,0,1-.46.38,57.44,57.44,0,0,0-8.31,5.32,1.91,1.91,0,0,1-.54.25.23.23,0,0,1-.33-.15c-.06-.12-.16-.26-.13-.36a1.05,1.05,0,0,1,.28-.52,21.13,21.13,0,0,1,1.72-1.41,55.1,55.1,0,0,1,6.57-3.93A1.49,1.49,0,0,1,34.33,153.18Z"/><path fill="#141b1b" d="M388.26,66c.31.15.37.39.09.58a1.43,1.43,0,0,1-.74.18c-4.41-.09-8.82,0-13.23.14a1.73,1.73,0,0,1-.6,0c-.17-.06-.4-.22-.42-.36a.62.62,0,0,1,.27-.48,1.32,1.32,0,0,1,.57-.09A98.47,98.47,0,0,1,388.26,66Z"/><path fill="#161313" d="M399.9,105.32a.34.34,0,0,1-.36-.39,3.26,3.26,0,0,1,.18-1,44.82,44.82,0,0,1,4.67-8.68.69.69,0,0,1,.3-.26c.11-.06.31-.12.37-.07s.29.33.27.49a2.07,2.07,0,0,1-.31.72,59.22,59.22,0,0,0-4.33,8.42,2.58,2.58,0,0,1-.43.66C400.19,105.31,400,105.3,399.9,105.32Z"/><path fill="#191212" d="M167.56,372.79a1.77,1.77,0,0,1,.34.07c.17.08.41.12.36.39s-.06.32-.14.35a11.9,11.9,0,0,1-1.5.58q-2.82.81-5.65,1.59a4.89,4.89,0,0,0-2,.83.43.43,0,0,1-.69-.09.59.59,0,0,1,.06-.75,2.25,2.25,0,0,1,.64-.47,17.5,17.5,0,0,1,1.72-.6c1.81-.54,3.63-1.05,5.45-1.56C166.63,373,167.16,372.89,167.56,372.79Z"/><path fill="#1b1212" d="M461.19,62.33c-.2,0-.5-.38-.42-.58a1.17,1.17,0,0,1,.3-.51,4.24,4.24,0,0,1,1.07-.52q3.56-1.06,7.12-2.09a4.26,4.26,0,0,1,1.17-.18c.14,0,.33.2.42.35a.35.35,0,0,1-.16.5,17.14,17.14,0,0,1-1.7.6c-1.8.52-3.6,1-5.41,1.52a5.11,5.11,0,0,0-2,.82C461.47,62.31,461.31,62.3,461.19,62.33Z"/><path fill="#1d1414" d="M108.67,155.2l-4-1c-.91-.23-1.83-.45-2.73-.71a4.45,4.45,0,0,0-2-.26c-.33.06-.49-.15-.5-.46a.66.66,0,0,1,.43-.62,1.38,1.38,0,0,1,1,0l8,1.93a1.73,1.73,0,0,1,.37.16.68.68,0,0,1,.45.59C109.71,155.09,109.4,155.28,108.67,155.2Z"/><path fill="#191111" d="M499.75,394.81c0,.39-.32.58-.6.75-1.67,1-3.37,2-5,3a7.62,7.62,0,0,0-2.61,1.86c-.06.09-.41.1-.54,0a.67.67,0,0,1-.21-.52c0-.61.51-.91,1-1.19l4.84-2.94c.69-.42,1.37-.85,2.08-1.24a1.58,1.58,0,0,1,.78-.14A.34.34,0,0,1,499.75,394.81Z"/><path fill="#1e1c1c" d="M79.24,168.26c.13,0,.3,0,.38,0a2.38,2.38,0,0,1,.51.59,78.55,78.55,0,0,0,3.69,7c.14.22,0,.39-.09.55a.45.45,0,0,1-.7,0,4.61,4.61,0,0,1-1.18-1.62c-.67-1.32-1.3-2.67-2-4-.3-.6-.67-1.17-1-1.76A.61.61,0,0,1,79.24,168.26Z"/><path fill="#241b1b" d="M160.11,389.94c-.94,0-1.88,0-2.82,0-.15,0-.34-.21-.42-.37-.15-.32.14-.52.36-.58a8,8,0,0,1,1.39-.19,55,55,0,0,0,6.42-.4,1,1,0,0,1,.76.17c.18.13.25.61.06.7a4,4,0,0,1-.94.31A40.66,40.66,0,0,1,160.11,389.94Z"/><path fill="#241a1a" d="M495.67,428.72c-.46-.09-1-.15-1.52-.3-2.14-.59-4.14-1.59-6.31-2.1-.14,0-.3-.31-.3-.47a.57.57,0,0,1,.47-.57,1.86,1.86,0,0,1,1,.19,59.88,59.88,0,0,0,6.94,2.15c.35.06.68.2.59.63S496.11,428.74,495.67,428.72Z"/><path fill="#1c1515" d="M459.14,90.42c-.08.09-.14.24-.24.27a1.39,1.39,0,0,1-1.16-.13c-.71-.39-1.38-.83-2.07-1.24-1.51-.88-2.8-2.09-4.37-2.86a.49.49,0,0,1-.22-.69.62.62,0,0,1,.86-.27,4.54,4.54,0,0,1,.68.43,67,67,0,0,0,6.12,3.86A.59.59,0,0,1,459.14,90.42Z"/><path fill="#1b1212" d="M148.91,399.71a9.29,9.29,0,0,1,.89.47c1.46.95,2.9,1.93,4.37,2.87.67.44,1.4.78,2.08,1.21a.59.59,0,0,1,.24.49.47.47,0,0,1-.6.38,6.37,6.37,0,0,1-2.36-1.09c-1.65-1-3.14-2.3-4.86-3.22a.48.48,0,0,1-.22-.68A2.78,2.78,0,0,1,148.91,399.71Z"/><path fill="#1c1414" d="M92.13,163.05c.27.1.58.2.88.34l6.46,3.21a.64.64,0,0,1,.31.24.9.9,0,0,1,.1.55.38.38,0,0,1-.45.3,5,5,0,0,1-1.13-.36q-3.12-1.59-6.22-3.23a1,1,0,0,1-.37-.44.39.39,0,0,1,.05-.36C91.82,163.2,92,163.15,92.13,163.05Z"/><path fill="#232222" d="M459.61,450.88l.21,3a1.13,1.13,0,0,1-.2.94.54.54,0,0,1-.33.19.45.45,0,0,1-.33-.2,1.06,1.06,0,0,1-.23-.52c-.13-2.07-.26-4.14-.36-6.2a2.54,2.54,0,0,1,.19-1,.65.65,0,0,1,.44-.35.46.46,0,0,1,.49.5c0,1.2,0,2.41,0,3.61Z"/><path fill="#1b1313" d="M493.37,413.6c-.13-.08-.39-.15-.44-.29a.47.47,0,0,1,.32-.63c.37-.14.74-.29,1.12-.42l6.08-2.05a2.9,2.9,0,0,1,.77-.14.37.37,0,0,1,.32.19c0,.18.08.47,0,.55a3.36,3.36,0,0,1-1,.62c-2.22.72-4.46,1.41-6.69,2.11A2.34,2.34,0,0,1,493.37,413.6Z"/><path fill="#201d1d" d="M38.68,169.16c-.21-.08-.37-.19-.39-.42a.89.89,0,0,1,.32-.7c1.35-1.51,2.7-3,4.06-4.51a1.6,1.6,0,0,1,1-.63A.52.52,0,0,1,44,163a.5.5,0,0,1,.12.35.75.75,0,0,1-.17.36c-1.54,1.71-3.07,3.41-4.62,5.1A.68.68,0,0,1,38.68,169.16Z"/><path fill="#1c1111" d="M463.54,75.42l-3.21.21a.74.74,0,0,1-.71-.29.64.64,0,0,1,0-.54.69.69,0,0,1,.5-.25c2.61-.17,5.22-.32,7.83-.47a.86.86,0,0,1,.38.1.55.55,0,0,1,.2.3.44.44,0,0,1-.1.35,1.45,1.45,0,0,1-1.08.42c-1.28.09-2.55.14-3.82.21Z"/><path fill="#1b1a1a" d="M415.81,105.59c.44-1.86.94-4,1.46-6.16a1.81,1.81,0,0,1,.42-.66.4.4,0,0,1,.36,0,.5.5,0,0,1,.3.23.74.74,0,0,1,0,.39l-1.38,6.5a1.52,1.52,0,0,1-.11.38c-.13.24-.29.48-.59.43a.55.55,0,0,1-.47-.56Z"/><path fill="#1b1919" d="M113.15,420.12c.47-2.09.94-4.19,1.44-6.28a1,1,0,0,1,.58-.76c.18-.05.43-.06.49.19a1.27,1.27,0,0,1,0,.58c-.4,2-.82,3.94-1.25,5.91a3.86,3.86,0,0,1-.17.58c-.1.3-.14.66-.57.73S113.19,420.74,113.15,420.12Z"/><path fill="#550707" d="M388.26,66,374.2,66a3.77,3.77,0,0,1,1.95-.37c3.47,0,7,0,10.43,0C387.15,65.56,387.8,65.45,388.26,66Z"/><path fill="#020101" d="M321.25 443.57c0-1.38 0-2.76.05-4.14 0-.46 0-.93.42-1.24a1.35 1.35 0 010 1.08c0 1.12 0 2.24-.07 3.36 0 .46 0 .93-.42 1.24l-.11-.14zM233.73 387.05c.17-.1.33-.29.49-.29 1 0 2.08 0 3.33 0-.68.55-1.3.25-1.82.44A5.18 5.18 0 01233.73 387.05z"/><path fill="#303232" d="M146.49 349.71a1.77 1.77 0 01-.3 1.71A2.55 2.55 0 01146.49 349.71zM146.06 352.5l.09 1.26C145.51 353.38 145.83 352.94 146.06 352.5zM146.53 353.77a.76.76 0 01.36-.73C147 353.38 147 353.68 146.53 353.77z"/><path fill="#0f0906" d="M292.94,136.1c1.37-1.38,2.74-2.75,4.1-4.13.49-.5.49-.61.07-1.19-2.11-3-4.2-5.93-6.35-8.85a44.75,44.75,0,0,0-5.51-6.16,5.23,5.23,0,0,1-1.32-1.49l.49-.48a28.58,28.58,0,0,1,4.79,4.6,64.4,64.4,0,0,1,5.23,6.95c1.17,1.73,2.44,3.4,3.66,5.09a5.6,5.6,0,0,1,.54.86.77.77,0,0,1-.17.93c-1.55,1.19-2.64,2.88-4.3,4-.16-.29-.39-.26-.66-.17A3.56,3.56,0,0,1,292.94,136.1Z"/><path fill="#cd7603" d="M304.75,236l-.6-.59a3.05,3.05,0,0,1,1.29-.77.37.37,0,0,1,.54,0A3,3,0,0,1,304.75,236Z"/><path fill="#675502" d="M306,234.63l-.54,0c.16-.11.31-.31.47-.31S306.25,234.46,306,234.63Z"/><path fill="#020101" d="M321.29,427.65h-.42a1.77,1.77,0,0,1,0-1.22C321.37,426.72,321.29,427.2,321.29,427.65Z"/><path fill="#0d0700" d="M306,175.82c1.33-.48,1.73-.29,1.86,1a10.31,10.31,0,0,1,0,2.42,35,35,0,0,1-1,5.15c-.6,2-1.06,4-1.64,6.05-.29,1-.63,1.28-.93,1-.52-.39-.17-.86-.07-1.28.19-.79.37-1.58.62-2.35.78-2.45,1.23-5,1.78-7.47a4.54,4.54,0,0,0,.11-2.17c-.61.09-.66.69-1.05.93s-.57.37-.92.15a.85.85,0,0,1-.42-.86,9.53,9.53,0,0,1,.2-1.19,30.12,30.12,0,0,0,.67-7.64,25.86,25.86,0,0,0-1.13-6.76A4.05,4.05,0,0,1,304,162a.19.19,0,0,1,.1-.17c.12,0,.3-.08.36,0a1.83,1.83,0,0,1,.49.63,15.8,15.8,0,0,1,.89,2.89,27.48,27.48,0,0,1,.2,9.27,4.25,4.25,0,0,0-.06.8A1.4,1.4,0,0,0,306,175.82Z"/><path fill="#100900" d="M357.13,175.47a2.27,2.27,0,0,1-.31,1.35.41.41,0,0,1-.33.15c-.11,0-.29-.11-.31-.19a4.19,4.19,0,0,1-.12-1,7,7,0,0,0-.5-2.57,1.08,1.08,0,0,0-1.76-.62,17.57,17.57,0,0,0-3.1,2.26l-5.89,5.26c-.59.52-1.06.62-1.17.3-.17-.49.16-.78.45-1,2.29-2.08,4.58-4.18,6.93-6.21a12.54,12.54,0,0,1,2.54-1.64,1.89,1.89,0,0,1,2.75.85A5.39,5.39,0,0,1,357.13,175.47Z"/><path fill="#110900" d="M317,295.94a7.54,7.54,0,0,1-3.87-.86,28.94,28.94,0,0,1-7.73-5.43l-.28-.29c-.23-.25-.48-.48-.33-.87s.6-.22,1,.18a29.46,29.46,0,0,0,7.95,5.46,14.33,14.33,0,0,0,1.9.68,2.25,2.25,0,0,0,2.81-.95A7.21,7.21,0,0,1,319,293a.55.55,0,0,1,.52-.12.62.62,0,0,1,.23.51,3.05,3.05,0,0,1-2.35,2.48A2.09,2.09,0,0,1,317,295.94Z"/><path fill="#140b00" d="M220.6,296.59l-.69,0c-.66-.08-1.1-.43-1-.78s.64-.39,1-.38c5,.05,8.53-2.44,11.18-6.46a4.76,4.76,0,0,1,.58-.81.58.58,0,0,1,.54-.06.61.61,0,0,1,.22.51,6.53,6.53,0,0,1-1.65,2.74,14.45,14.45,0,0,1-9.32,5.18C221.19,296.53,220.85,296.56,220.6,296.59Z"/><path fill="#140d0d" d="M269.68,65.42a10,10,0,0,1,8.73,5.48.79.79,0,0,1,.15.36,1.1,1.1,0,0,1-.22.52.35.35,0,0,1-.53,0c-.37-.48-.7-1-1.06-1.47a9.52,9.52,0,0,0-5.44-3.61,7.3,7.3,0,0,0-4.75.37c-.43.17-.85.41-1.28.58a.58.58,0,0,1-.73-.17.55.55,0,0,1,.22-.7,5.67,5.67,0,0,1,1.61-.81A10.37,10.37,0,0,1,269.68,65.42Z"/><path fill="#1b1515" d="M261.67,96a6.29,6.29,0,0,1-5.45-2.64.39.39,0,0,1,0-.54.57.57,0,0,1,.73-.1,2.33,2.33,0,0,1,.6.53A4.12,4.12,0,0,0,259,94.29a6.35,6.35,0,0,0,4.71.26,9.86,9.86,0,0,0,2.54-1.2.4.4,0,0,1,.53.12.45.45,0,0,1,0,.7A7.29,7.29,0,0,1,261.67,96Z"/><path fill="#171313" d="M260.44,88.32a3.28,3.28,0,0,1-3.7-3.56,2.49,2.49,0,0,1,.09-1.18c.08-.15.18-.21.33-.16a.86.86,0,0,1,.35.15c.28.34.15.77.19,1.16.18,1.91,1.2,2.79,3.1,2.54.86-.11,1.7-.38,2.56-.57a1.8,1.8,0,0,1,1.19,0,.41.41,0,0,1,.23.27.46.46,0,0,1-.08.36.56.56,0,0,1-.31.24A14.35,14.35,0,0,1,260.44,88.32Z"/><path fill="#292222" d="M286.76,85.64a3.39,3.39,0,0,1-.7,1.62,1,1,0,0,1-.71.31c-.26,0-.56-.32-.45-.52s.22-.33.32-.5c.51-.83.51-.83-.33-1.6a.51.51,0,0,1,0-.72.86.86,0,0,1,1.24-.23A1.76,1.76,0,0,1,286.76,85.64Z"/><path fill="#f38704" d="M242.18,98.82a6.41,6.41,0,0,0-.67-1.68A4.41,4.41,0,0,0,240,95.3a6.41,6.41,0,0,1-.95-.27,5.15,5.15,0,0,0-4.08-.4,1.71,1.71,0,0,1-.59,0,2,2,0,0,1-.84.83c-3.5,2.12-3.28,7.25-1,9.52a5.69,5.69,0,0,0,8.64-.41A6.28,6.28,0,0,0,242.18,98.82ZM235.65,105a3.11,3.11,0,0,1-3-2,9.55,9.55,0,0,1-.31-1.3,6.4,6.4,0,0,1,3-5.63.56.56,0,0,1,.53.1.33.33,0,0,1,0,.51,8.65,8.65,0,0,0-2.11,2.4,4.66,4.66,0,0,0-.6,2.11,2.66,2.66,0,0,0,2.15,3c.13,0,.27,0,.39.09s.35.22.31.45A.37.37,0,0,1,235.65,105Zm3.06-.4c-.29,0-.51-.21-.48-.5a.57.57,0,0,1,.67-.53.55.55,0,0,1,.48.51A.57.57,0,0,1,238.71,104.57Z"/><path fill="#f38705" d="M288.43,93c-.41-.34-1-.47-1.23-1-.74-.08-1.47-.21-2.2-.23a5.36,5.36,0,0,0-5.73,5.43c0,.46,0,.93,0,1.39.25.39.53.77.76,1.17a5.91,5.91,0,0,0,4.8,3.24,5.38,5.38,0,0,0,6.13-5.38A6.14,6.14,0,0,0,288.43,93Zm-3.95,8.27a.2.2,0,0,1-.13.14,1.6,1.6,0,0,1-.58,0,3.92,3.92,0,0,1-3-4.16,4.48,4.48,0,0,1,1.07-3.23.43.43,0,0,1,.37-.08c.19,0,.35.18.24.43-.18.43-.38.85-.53,1.29-.76,2.16-.14,3.73,1.9,4.86a4.25,4.25,0,0,1,.67.43C284.56,101,284.51,101.2,284.48,101.31Zm1.92.23a.44.44,0,0,1-.53-.42.51.51,0,0,1,.39-.57c.31,0,.54.13.57.43A.5.5,0,0,1,286.4,101.54Z"/><path fill="#130b00" d="M174.3,488.07a6.3,6.3,0,0,1-4.77-1.86,4.13,4.13,0,0,1-1.22-3.88,1.18,1.18,0,0,1,.22-.55.68.68,0,0,1,.52-.18.69.69,0,0,1,.43.37c.06.16,0,.37-.06.57a3.15,3.15,0,0,0,1.66,3.56,6.61,6.61,0,0,0,4.91.59c1-.22,1.94-.55,2.92-.82a4.16,4.16,0,0,1,1-.2.55.55,0,0,1,.57.47.42.42,0,0,1-.3.46c-1.41.44-2.83.9-4.25,1.29A9.56,9.56,0,0,1,174.3,488.07Z"/><path fill="#100900" d="M321.93,491.41a6.77,6.77,0,0,1-3.83-1.06,8.92,8.92,0,0,1-2.38-1.85c-.09-.11-.05-.39,0-.56a.34.34,0,0,1,.51-.15,3.56,3.56,0,0,1,.83.56,8.85,8.85,0,0,0,3.55,1.86,3.47,3.47,0,0,0,3.42-.63,9.15,9.15,0,0,0,2.55-3.11c.24-.48.47-1,.71-1.45.15-.31.3-.66.73-.52s.39.51.25.84a16.57,16.57,0,0,1-1.12,2.37,11.54,11.54,0,0,1-2.41,2.72A4,4,0,0,1,321.93,491.41Z"/><path fill="#0f0a05" d="M246.3,215.62a4.21,4.21,0,0,0-4.15,4.3,4,4,0,0,0,4.16,4,4.12,4.12,0,0,0,4.08-4.14A4.29,4.29,0,0,0,246.3,215.62Zm-.11,7.22a3.23,3.23,0,0,1-3.07-3.13,3.13,3.13,0,0,1,6.26.13A3.25,3.25,0,0,1,246.19,222.84Z"/><path fill="#120c06" d="M247.38,271.62a3.78,3.78,0,0,0,0,7.56,3.78,3.78,0,0,0,0-7.56Zm.11,6.43a2.77,2.77,0,0,1-2.83-2.75,2.69,2.69,0,0,1,2.72-2.63,2.62,2.62,0,0,1,2.7,2.62A2.68,2.68,0,0,1,247.49,278.05Z"/></g></svg>